<svg version="1" xmlns="http://www.w3.org/2000/svg" width="1526.667" height="1526.667" viewBox="0 0 1145.000000 1145.000000"><path d="M352.9 132.4c-.2.2-3.4.7-7 1-3.6.3-10.8 1.4-16 2.6-30.8 6.7-54.7 19.7-90.9 49.4-49.6 40.9-78.4 85.6-91.9 142.6-1.6 6.9-3.2 14.4-3.6 16.7-.3 2.3-.8 5.7-1.1 7.5-.3 1.8-.7 10-.9 18.3-.4 16.4 1.1 32.3 4.5 47.7 1.2 5.1 2.3 10 2.5 10.8.1.9-1.5 4.7-3.6 8.5-13 22.9-26.4 53.5-34.3 78.2-3.6 11.3-8.2 28-9.2 33.6-.2 1.7-.7 3.3-.9 3.7-.5.8-1.8 7.5-5.1 27.5-1.1 6.6-2 14-2.9 24-.3 3.3-.8 8.6-1.1 11.8-1.1 11.9-.3 62.4 1.1 69.7.2.9.6 5.3 1 9.7.5 6.6.4 8.1-.8 8.6-2 .8-18.6 11.3-21.7 13.7-1.4 1.1-6.2 2.9-10.8 4-10.4 2.5-18.2 6.4-25.4 12.9-14.8 13.3-20 28.5-16.3 47.6 3.7 19.3 5.8 24.1 14.5 32.5 5.4 5.3 9.2 7.5 11.5 6.7 1.4-.6 1.3-1.1-.5-4.6-1.1-2.2-2.1-5.7-2.3-7.8l-.2-3.8 8-.1c19.3-.1 28.7-4.4 44.5-20.3 5.3-5.3 11.5-10.6 13.8-11.9l4.2-2.3 1 2.6c6.2 16.3 17.1 40 22.2 48.2l2 3.3h-2.9c-3.6-.1-7.6-1.1-19.8-5.3-11.6-4-16-4.1-24-.2-9 4.4-14 11.9-6.6 10 5.3-1.5 9.1-1.5 12.4-.2 3.1 1.3 3.3 1.7 2.9 5.1-.2 2 .1 4.3.8 5.1 1.1 1.3 6.5 2.7 14.8 3.9 8.7 1.2 1.1 2.6-14.8 2.8-10.2.1-14.1-.2-26.2-1.7-5.1-.7-6.4-.5-11.2 1.9-4.9 2.4-7.1 4.3-12.7 11.3-1 1.2-2 3.5-2.4 5.2-.6 2.6-.4 3.1 1.3 3.1 1.1 0 2.5-.7 3.2-1.5 1.6-2 11.4-5.5 15.3-5.5 3.2 0 3.2 0 3 4.9-.1 6.3 1.9 8.4 8 8.3 2.4-.1 5.4-.5 6.7-1 1.5-.5 3.7-.5 5.7.1 2.5.8 4.3.7 6.7-.1 1.9-.7 6.7-1.2 10.7-1.1 4.1.1 10.1-.6 13.4-1.5 3.2-.9 7.5-1.6 9.5-1.6l3.5.1-3.5 1.5c-1.9.8-7.3 2.5-12 3.6-4.7 1.2-10.1 3.1-12.1 4.4-6.3 3.9-13.9 14.2-13.9 18.8 0 2.4 1.7 2 5.8-1.4 2.9-2.3 10.8-6 12.8-6 .2 0 .4.8.4 1.7.1 5.3 5.8 6.7 13.3 3.4 2.3-1 6.9-2.3 10.3-3 5.5-1 24.1-9.6 31.9-14.7l2.7-1.8 4.1 4.5c2.2 2.4 10.3 10.8 18 18.7l13.9 14.2-1.8 2.8c-6 8.9-11.2 22.1-14.9 37.2-1.4 5.8-2.5 10.8-2.5 11.3 0 .4 3.9-1.9 8.8-5.1 23.1-15.4 40.2-23.2 42.6-19.3.9 1.4 25.9 16.2 35.2 20.9 21.1 10.6 55.2 22.8 71.9 25.6 1.7.3 4.1.8 5.5 1.1 1.4.2 3.7.7 5.3.9 1.5.3 3.5.7 4.5 1 6.2 1.9 21.9 4.4 32.2 5.3 14.2 1.1 36.4.6 44.5-1.1 1.1-.2 4-.7 6.5-1 7.2-1 14-2.4 34-7.1.8-.2 3.7-.8 6.3-1.4 2.7-.6 7.6-2.3 11-3.7 3.4-1.4 11-4.3 16.8-6.5l10.6-3.9 10.8 4c16.5 6.2 31.1 10.8 41 12.9 5 1 11.5 3.1 14.4 4.6 8.7 4.4 25.1 9.3 36.8 11 10.5 1.5 29 1.5 37.1 0 2.5-.5 5.4.2 11 2.4 11.2 4.4 18.5 6.3 26.2 6.6 16.8.9 25.2-6.3 25.4-21.6.1-3.9.5-6.9 1.1-6.9 1.4 0 20.5 2.8 23.4 3.5 10 2 22.1 7.4 32 14.1 7.9 5.5 11.2 5.7 13.8 1 4.5-8.2-18.4-36.5-42.6-52.9-15.9-10.7-30-15.4-49.4-16.2-11.4-.5-14.2-.7-25.7-2-11.2-1.3-13.8-1.7-27-4.1-2.5-.4-4.7-.8-5-.9-.3-.1-2.4-.5-4.8-.9-4.5-.8-4.9-1.4-1.6-2 1.1-.2 4.6-1.2 7.9-2.1 4.9-1.5 8.2-1.7 19-1.2 7.1.4 14.1.9 15.5 1.1 4.4.8 17.2 1.8 26.5 2.1 6.4.3 10.2-.1 13-1.2 8.7-3.3 18.4-5.4 28-5.9 8.6-.5 10.7-.3 15.2 1.4 2.8 1.2 6.4 1.9 8 1.6 1.5-.2 4.4-.7 6.3-1 1.9-.3 7.9-2.4 13.2-4.6l9.8-3.9 9.6 1.2c11.6 1.4 27.2.7 33.7-1.6 6.2-2.2 12.3-8.3 13.8-13.8 2-7.4-.1-22.9-4.2-30.9L853 858l2.7-.7c3.6-.9 33-1 36.5 0l2.6.7.1 10.7c.1 12.2 2.2 21.1 5.6 24.3 7.9 7.4 19.7 2.4 46-19.4 64.7-53.6 111.4-131.7 127.9-213.8 2.1-10.7 3.2-17 5.1-32 2.3-17.5 2.3-60 .1-73.8-.3-1.4-.7-4.8-1.1-7.5-4.8-40.8-22.8-91-45.3-126.5-7.5-11.8-17.8-26.8-22.6-33-6.1-8-22.7-27.4-23.8-27.8-.4-.2-3.6-4-7.2-8.5-8.4-10.7-16.6-19.2-24.6-25.4-6.4-4.9-16.4-11.3-17.7-11.3-.3 0-4-2.6-8.2-5.8-36.7-28.2-80-43.8-132.6-47.8-17.6-1.4-54.1-.7-63 1.1-1.1.3-3.8.7-6 1-9.8 1.4-17.3 2.7-21 3.7-2.2.5-5.1 1.2-6.4 1.5-1.4.2-7.4 1.7-13.5 3.4-15.5 4.2-36.6 8.8-37.9 8.4-4.2-1.4-34.8-4.3-51.7-4.9-8.4-.4-8.4-.4-11.7-4.2-1.8-2.2-6.8-9.1-11.1-15.4-6-8.8-8.2-13.1-9.7-18.5-11.9-45-46.3-79.8-92-93-11.3-3.2-22.6-5.3-38.5-7-3.6-.4-7.2-.9-8.1-1-.9-.2-5.2-.6-9.5-1s-8.8-.9-9.9-1.2c-2.5-.6-53-1.5-53.6-.9zm52.6 10c1.7.3 5.5.7 8.6 1 13.9 1.3 33.2 3.9 42.4 5.7 45.1 9.2 77.8 35.4 94.5 75.8 1.6 4.1 3 7.7 3 8.2 0 .4-3.6-.5-7.9-2.1-7.7-2.8-22.9-7.3-28.1-8.4-1.4-.2-5-1-8-1.6-12.1-2.4-31.5-3.1-44.7-1.7-11.9 1.3-33.1 9.8-39.7 15.9-13.7 12.7-20.4 22.2-26.1 37.6-3.3 8.7-7.5 26.4-7.5 31.5 0 2.2-1.4 3.2-12.6 8.7-6.9 3.4-15.2 7.6-18.3 9.4-3.1 1.8-11.2 6.3-18.1 10.1-6.9 3.8-16.9 9.7-22.3 13.2-5.4 3.5-10.2 6.3-10.6 6.3-2 0-13.1-24.7-13.1-29.2 0-.9-.4-1.9-.9-2.2-.4-.3-.2 3.2.6 7.7 1.6 8.8 5.4 19.5 8.5 23.9l1.9 2.7-5.4 4c-5.6 4.3-6.2 4.3-15 2-7.1-1.9-14.8-11.4-17.1-21.3-.7-2.6-.5-2.8 1.6-2.1 3.7 1.1 19.5 1.8 20.1.8.3-.4-1.1-.8-3.1-.8-4.7.1-13.1-1.4-15.5-2.6-1.6-.9-1.3-1.4 2.5-4.9 10.3-9.2 28.2-21.5 54.8-37.8 8.5-5.2 18-11.1 21-13.1 3.1-2.1 9.7-5.3 14.9-7.2 9.1-3.3 9.3-3.5 11.3-8.2 1.7-3.9 3-5.3 6.7-7.2 3.9-2 5.1-3.3 8.3-9.6 2-4.1 4.6-9.5 5.7-12 1.4-3.5 3-5.3 6.5-7.3 5.7-3.3 6-5.1.9-4.3-3.5.6-4 .4-5.6-2.4-1.6-3-2-3.1-6.3-2.4-7.1 1-30 9.9-43.4 16.8-16.9 8.7-24.4 13.7-28.2 19-9.4 12.9-21 24.8-38.8 39.9-24.1 20.5-24.4 20.7-24.7 20.4-.5-.5-1.2-6.9-1.4-13.1-.2-8.6-1.6-2.6-1.8 8l-.2 8-8 5.7-8.1 5.7-5.2-1.9c-8.4-3.2-13.1-10.6-13.1-20.8v-6.3l-1.4 3.3c-1.6 3.9-1.5 12 .4 16.4 1.8 4.3 6.2 8.1 11.8 10.2l4.7 1.8-3 2.2c-1.7 1.3-6.4 5.2-10.4 8.7-6.7 5.9-7.9 6.5-11.8 6.5-5.6 0-10.6-2.7-13-7.1-1.7-3-1.9-4.8-1.4-14.4.3-6.1.8-12.7 1.1-14.8.4-2 .5-3.7.2-3.7-1.1 0-4.8 16.5-5.2 22.6-.6 12.5 2.7 18.2 12 20.4 3 .7 5.5 1.4 5.5 1.5 0 .2-2.3 2.6-5.2 5.4-3.4 3.4-5.4 4.7-5.9 4-.4-.7-.5-1.8-.2-2.6.3-.7 0-1.3-.6-1.3s-1.1 1.8-1.1 4.1c0 3.6-.7 4.9-5.4 10-8.2 8.8-22 26.3-28.9 36.6-3.4 5.1-6.5 9.2-6.8 9.3-.6 0-3.5-15-4.6-24.5-1.5-12.4-.7-37.4 1.6-49.8 8.2-45 26.9-84.6 55-116.7 9.7-11 27.8-28.2 40.1-38 2.4-1.9 4.8-4 5.4-4.5 1.9-1.9 21.9-16.1 27.7-19.8 19.4-12.3 44.9-21.3 66.5-23.3 3.8-.4 7.1-.8 7.3-1 .6-.6 46.9.4 50.6 1zm-7.7 80.9c-.2 1.7-2.2 2.8-9.8 5.4-5.2 1.8-10.2 3.3-11.1 3.3-2.2 0-30.1 14.1-36.7 18.5-3 1.9-5.6 3.5-5.8 3.5-.3 0-4.4 2.8-9.2 6.3-12.1 8.7-12.3 8.8-7.1 2.7 2.5-3 5.5-6.9 6.7-8.7 5.1-7.3 45.9-27.7 65.5-32.7 6.1-1.6 7.9-1.1 7.5 1.7zm106.2 6.1c12.2 2 26.1 5.6 38.2 10 14.1 5.1 15.2 5.8 19.1 12.8 2 3.5 6.1 9.7 9.2 13.8 5.4 7.2 5.5 7.5 3.3 8-1.2.3-13.7.7-27.8.9-25.9.3-28.1.4-40.5 1.5-9.2.9-13.6 1.5-23 3.1-1.6.3-4.6.8-6.5 1.1-1.9.3-4.3.7-5.2 1-1 .3-3 .7-4.5 1-1.6.3-3.6.7-4.5 1-.9.3-2.5.6-3.5.8-1 .2-4.5 1.1-7.8 2-3.3.9-7.1 1.9-8.4 2.2-4 .8-29.3 9.5-34.8 11.9-2.8 1.3-5.4 2.1-5.6 1.9-.7-.7 2.7-15.8 5.3-23.4 8.1-24.2 24.6-41.2 46.3-47.7 13.8-4.2 32.4-4.9 50.7-1.9zm-107-.5c0 .5-1.6 1.9-3.6 3.2-2.9 1.8-3.8 1.9-4.4.8-.5-.7-.8-1.5-.6-1.6.2-.2 7.1-2.9 8.4-3.2.1-.1.2.3.2.8zm-9.9 5.8c1.9 1.9-3.8 4.8-9.6 4.8-4.7.1-6.4.9-27.6 14.3-12.5 7.8-27.1 17.3-32.5 21.2-12.8 9.1-5.7 2.8 11.1-9.9 15.3-11.6 27.8-19.4 43-26.7 10.7-5.2 13.4-5.9 15.6-3.7zm6.8 3.3c-1.1 2.2-2.1 4-2.2 4-.9 0 0-5 1.2-6.3 2.4-3 3-1.8 1 2.3zm-7.9 8.5c-1.7 2.5-3.3 4.5-3.5 4.5-.3 0-.3-1.8-.2-4 .2-3.1 1-4.6 3.2-6.5 2.8-2.2 3-2.2 3.3-.4.2 1-1.1 3.9-2.8 6.4zm-9.2-2.7c-3 2-15.2 11-25 18.4-4.3 3.2-8 5.8-8.2 5.8-1 0-25.4 12-31.3 15.4-3.5 2-6.3 3.4-6.3 3.2 0-.9 24.9-17.9 42-28.6 10.7-6.8 20.6-13.1 22-14 2.6-1.8 6.8-2.9 8.3-2.2.5.2-.2 1.1-1.5 2zm2.7 4.9c-1.1 7.1-2.3 8.2-17.1 15.8-7.8 4-18.3 9.8-23.3 12.8s-9.1 5.4-9.1 5.2c0-1 47.7-37.2 49.3-37.4.5-.1.6 1.5.2 3.6zm9.4-.5c-1.5 3-4 5.8-5.1 5.8-.8 0 5.2-7.9 6-8 .1 0-.3 1-.9 2.2zm-59.4 12.6c-.6.5-4.4 3.5-8.5 6.8-4.1 3.2-7.7 6.1-8 6.4-.3.3-10.4 8.8-22.5 18.9-12.1 10-23.1 19.2-24.5 20.4-1.4 1.2-3.6 3-5 4.1-4.5 3.3 5.4-5.8 13-11.9 4.1-3.3 11.3-9.4 16-13.5 4.7-4.1 11.2-9.7 14.3-12.4 6.2-5.3 24.9-19.6 25.6-19.6.3 0 .1.4-.4.8zm44.6 4c-.9 1.6-5.7 4.2-7.9 4.2-.3 0 1.5-1.6 3.9-3.4 4.7-3.7 5.7-3.9 4-.8zm431.4-1.3c1.7.2 4.9.7 7.2.9 9.2 1.2 24.4 4.1 34.3 6.6 10.2 2.6 26.2 7.9 27.5 9.1.5.5 1.5.9 2.2.9 2.1 0 25.1 11.5 32.3 16.1 10 6.4 9.5 6.6-2.6.5-17.6-8.8-53-22.2-63.8-24.2-1.6-.2-3.2-.7-3.6-.9-.7-.5-16.6-4.1-21.5-4.9-1.6-.3-7.2-1.2-12.3-2.1-5.2-.9-13.5-2-18.5-2.5-8.9-.8-8.8-.9 3.3-.4 6.9.3 13.9.7 15.5.9zm-20.5 1.9c9.2.7 11.1 1 24.5 3.2 12.2 2 11.7 1.9 23.5 4.8 13.9 3.5 12.3 3.1 22 6.1 21.2 6.8 54.6 21.3 72 31.5 4.1 2.4 10 6.7 13 9.5s9.9 8.6 15.2 12.9c13.8 11 26.3 23.4 35.9 35.6 4.6 5.8 8.8 11 9.3 11.6 22.1 23.3 40.2 54.3 54.4 93.4 8 21.7 14.8 49.9 17.6 73 .4 3 .9 6.8 1.1 8.5 2.5 20.1 2.6 67.5.1 86-.2 1.6-.7 6.1-1.1 10-.7 8.3-26.4 86.6-31.8 97.3-23.7 46.3-56.2 87.2-98.3 123.4-14.4 12.5-17.6 14.1-26.7 14.2l-6.8.1-3-7c-1.6-3.9-3.3-7.9-3.8-9-.5-1.1-1.6-4.1-2.5-6.8-1.4-4.5-1.4-4.7.4-4.7 2.5 0 5.2 6 5.1 11.2 0 3.6 1.1 4.9 2.3 2.9.3-.5 2.2-.3 4.3.4 3.6 1.3 5.5 3.8 4.6 6.2-.9 2.3 1.1 1.3 7.6-3.7 4.9-3.9 6.8-4.9 8.7-4.4 3.6.9 7.4-2 7.4-5.7 0-2.6 2.6-5.6 18.3-21.2 40.1-39.8 65-74.5 85-118.7 6.8-15 16.8-42.8 19.2-53.5.2-1.1 1.1-4.9 2-8.5 3-12.1 5.8-27.4 7-37.7.3-2.7 1-8 1.4-11.8.9-7.3.7-19.8-.4-27.5-.4-2.5-.9-6.1-1.1-8-.3-1.9-1.2-7.4-2-12.2-.8-4.8-1.7-10.6-2-13-.3-2.4-.7-5.4-1-6.8-.5-3.2-1.3-10.9-1.8-18.5-.3-3.3-1.8-9.6-3.4-14-1.7-4.4-4.9-14.1-7.2-21.5-3.8-12.2-8.1-23.6-13-34.5-1-2.2-3-6.9-4.5-10.5-3.6-8.6-13.6-28.6-17.1-34.1-20.9-33.6-46.4-63.2-70.4-81.7-9.1-7.1-15.2-10.5-46.5-26.1-19.8-9.8-39.4-19-43.5-20.4-28.8-9.8-50.7-12.7-97.5-13-26.6-.2-36.3 1-77 9.6-11.1 2.4-27.5 3.5-27.5 1.9 0-2.1 48.2-14.7 64-16.7 3-.4 6.4-.9 7.5-1.1 1.1-.2 7-.7 13-1 6.1-.4 11.1-.7 11.2-.8.5-.4 24.4.3 32.3.8zm-425 4.5c-3 2.2-8.3 5.1-11.7 6.4-6.9 2.8-8.3 2.7-2.8 0 8-4.1 16.1-8.6 17-9.4.5-.5 1.4-.9 1.9-.9.6 0-1.4 1.8-4.4 3.9zm425.5 8.1c2.8.4 7.3 1.1 10 1.4 2.8.4 5.7.9 6.5 1.1.8.2 2.9.7 4.5.9 6.4 1.1 22.4 5 22.1 5.4-.3.2-4-.4-8.3-1.2-4.3-.9-9.6-1.8-11.8-2.1-2.2-.2-5.8-.6-8-.9-16.1-1.9-44.5-2.6-56-1.2-9.1 1-14 1.7-15.5 2.2-.9.3-1.1.2-.5-.4 1.2-1 15.2-4 22.1-4.8 2.7-.2 4.9-.6 5.1-.8.7-.7 24.9-.4 29.8.4zM327 281.3c-2.2 2-10.3 8.7-15.3 12.7-1.1.8-2.6 2.1-3.4 2.9-.8.7-5.8 4.3-11.1 7.9-8.2 5.5-25.5 18.3-27.2 20.2-2.4 2.6-4.1 3.2-5.5 2-.8-.7-1.5-1.6-1.5-2.1 0-1.3 25.5-20 41.3-30.3 25.8-16.7 27.7-17.9 22.7-13.3zm392.6 1.3c-11.2 3.2-22.8 5.4-21.5 4 .4-.4 1.5-.8 2.5-1.1 1.1-.2 7.3-1.7 13.9-3.4 16.4-4.1 19.7-3.8 5.1.5zm-66.1-.6c-.3.5-1.4 1-2.3.9-1.4 0-1.3-.2.3-.9 2.7-1.1 2.7-1.1 2 0zm-313.8 1.3c-1.1.7-5.3 3.3-9.5 5.9-19.6 11.9-23.7 14.5-27.7 17.5-6.1 4.6-6.5 4.1-.8-.9 6.2-5.3 13-9.7 27.3-17.5 10.5-5.7 15.2-8 10.7-5zm242.6-.6c-1.3.2-3.5.2-5 0-1.6-.2-.5-.4 2.2-.4 2.8 0 4 .2 2.8.4zm23.1 1.1c.2.4-1.3.6-3.5.4-2.1-.2-3.9-.6-3.9-.8 0-.7 6.9-.4 7.4.4zm144.9 1.9c-.7.2-2.1.2-3 0-1-.3-.4-.5 1.2-.5 1.7 0 2.4.2 1.8.5zm-9.3 1c-1.4.3-5.3 1.1-8.8 1.8-3.5.7-6 1-5.7.6.9-.9 10.5-2.9 14-2.9 2.6.1 2.7.1.5.5zm-22.4 1.2c-.4.5-2.9 1.4-5.7 2-7.6 1.7-8.2 1.1-.9-.9 3.6-.9 6.6-1.8 6.8-1.9.2 0 .1.3-.2.8zm75.9.6c9.5 1.1 15.9 2.1 25.2 3.9 4.6.9 22 5.8 27.8 7.8C896.4 317 944 348.4 973 383c3.4 4.2.6 1.7-8-6.9-22.8-22.7-27.9-26.6-50.5-38.6-4.9-2.6-16.9-9.4-26.5-15-18.5-10.8-21.6-12.4-34.6-17.3-6.6-2.5-27.6-8.4-34.4-9.7-1.9-.3-9.6-1.5-13-2-16.8-2.4-41-2.3-59.5.1-8.2 1-26.2 4.4-30.5 5.7-6.3 1.8-28.2 2.1-34.5.4l-5-1.4 5.5-.8c3-.4 6.4-.9 7.5-1.2 1.1-.2 6.7-.6 12.5-.8 6.3-.2 15.3-1.3 22.6-2.9 21.6-4.6 26.6-5.2 44.4-5.3 8 0 19.5.5 25.5 1.2zm47.5 1c6.2.9 15 3.1 18 4.4 2.3 1 2.2 1.1-1 .5-8.6-1.4-22.1-4.7-22.7-5.7-.3-.5-.2-.8.3-.4.5.3 3 .8 5.4 1.2zm-262.1 1c10.9.8 15 1.5 15.7 2.7.4.7-1.1.8-4.2.5-10.8-1.3-29.4-2.4-45.4-2.8-9.9-.2-10.6-.3-5-.8 7.8-.7 26.9-.5 38.9.4zm118.8-.9c-.8.8-4.8 1.3-4.3.6.2-.4 1.4-.8 2.6-.9 1.2-.1 2 0 1.7.3zm157.1 8.5c13.4 4.8 35.4 15.9 48.7 24.4 6.6 4.2 12.5 8.1 13 8.7.6.7-.6.2-2.5-1.1-12.2-7.6-31.4-17.9-43-22.9-11.2-5-32.2-12.5-38-13.7-5.5-1.1-11.6-2.9-12.3-3.5-1.6-1.4 25.8 5 34.1 8.1zM302 292.8c-4.8 3.3-32.6 23.3-37.2 26.8-2.7 2-4.8 3.2-4.8 2.7 0-1.7 41.7-31.4 43.9-31.2.3 0-.5.8-1.9 1.7zm327.5-.2c6.5.7 17.7 2.5 21.5 3.4 1.9.5 5.6 1.4 8.1 2 2.6.7 6.2 1.3 8 1.4 3.5.3 29.5 6.2 30.9 7.1.4.3 3.4-.4 6.6-1.5 3.3-1.2 8.6-2.3 11.9-2.5 5.8-.5 12.8-1.3 17-2.1 1.1-.2 4.3-.7 7-1 2.8-.3 7.5-.9 10.5-1.4 3-.4 12.9-.8 22-.8 14.1 0 18.5.5 30.4 2.9 43.3 8.9 83.8 24 112 41.8 22.9 14.4 42.8 30 52.6 41.1 3 3.5 6.3 7.2 7.3 8.4 5.9 6.7 19 25.2 22.4 31.6 23.7 44.5 30.8 59 34.8 70.5 2.4 7 4.6 14.1 4.9 15.8.3 1.8 1.4 7.9 2.5 13.7 2.1 10.9 2.6 13.7 3.6 20.5.3 2.3.7 5 .9 6.2.3 1.2.7 5 1.1 8.5.3 3.5.9 8.1 1.1 10.3 1.2 8.5 1 42.6-.1 54.7-.7 6.9-2.9 19.5-4.9 28-1.9 8.4-4.9 22-6.6 30.3-5.7 27.6-18.1 54.8-40.2 87.8-5.8 8.8-19.8 27.3-25.6 33.9-13 15-27.8 29.8-33.3 33.5-3.9 2.6-9.6 4.5-10.3 3.5-.2-.4-.7-2.5-1-4.7-.4-2.2-.9-4.7-1.1-5.6-.6-1.9 2.9-5.4 4.5-4.4 2.6 1.6 6.5 1.4 10.5-.5 4.8-2.3 24.4-22 34.1-34.2 3.3-4 6.1-7.5 6.4-7.8.4-.3 3.3-4.3 6.7-9 11.7-16.3 24.6-38.6 31.8-55 2-4.7 4.5-10.3 5.5-12.5 3.7-8.2 11.4-33.3 13.6-44 2.5-12.4 4.2-23.1 5.1-33 1.5-15.8.7-63-1.2-70.5-.2-.8-.6-3.3-1-5.5-1.8-12.9-7.9-38.8-11.2-47.9-.8-2.3-1.6-4.8-1.8-5.6-2.2-10.1-22.5-53.6-31-66.3-2.5-3.8-4.5-7.1-4.5-7.3 0-.2-2.3-3.7-5.2-7.7-24.9-34.6-53.5-61.4-85.8-80.8-22.8-13.6-51.1-24.8-74.5-29.4-19-3.7-29.2-4.8-48.5-4.9-19.1-.2-24 .2-23.4 1.9.3.8 1.5 1.2 2.7.9 2.9-.5 27.2-.5 31.7 0 1.9.2 6.2.7 9.5 1 18.9 2 41.5 8.2 61.8 17.1 10.4 4.6 14.1 7.1 6.1 4.1-15.6-5.7-32.1-9.7-54.4-13-13.1-2-41.9-2.6-59.6-1.2-9 .6-15.7.2-29.4-1.9-1.4-.2-4.3-.6-6.5-1-5.4-.7-42.4-7.2-45.5-7.9-1.4-.4-3.8-.8-5.5-1.1-3.7-.6-19.4-3.9-34-7-6-1.3-13-2.7-15.5-3-2.5-.4-4.7-.9-5-1.2-.5-.5 9.7.1 19.5 1.3zm26.5-.1c4.7.3 11 1.1 14 1.7l5.5 1.2-3.5.7c-1.9.4-5.5.3-8-.3-7-1.6-7.2-1.6-12.3-2.4-2.6-.3-5-1.1-5.4-1.7-.3-.5-.2-.8.3-.4.5.3 4.7.8 9.4 1.2zm116.8 2.2c-1 .2-2.8.2-4 0-1.3-.2-.5-.4 1.7-.4 2.2-.1 3.2.1 2.3.4zm30.2.7c1.4.3 5.7.9 9.5 1.5 10.4 1.5 28.8 6.4 40.1 10.6 9.7 3.7 25.8 11.4 25.1 12.1-.2.2-3-.7-6.3-2-28.2-11.4-69.7-22-87.8-22.5-4.4-.1-8.3-.5-8.6-.8-.5-.6 23.6.4 28 1.1zm-173.5 2.3c3.3.8 6.9 1.7 8 1.9 1.1.2 6.7 1.3 12.5 2.4 5.8 1.2 11.6 2.3 13 2.6 1.4.2 5.7 1.1 9.5 1.9 7.2 1.5 46.3 8.1 52.5 8.9 1.9.2 6 .8 9 1.2 6.5.9 10.1.9 19.5 0 8-.7 36.5-.7 44-.1 10.2 1 25 3 28.5 4 .8.2 3.1.7 5 1 19.7 3.2 57.6 17.6 72 27.4 9.2 6.2 26.1 19.5 33.8 26.6 15.9 14.5 28.9 28.4 42.3 45 6 7.5 11.1 12.9 11.9 12.7 2.7-.4 18.3 29 26.8 50.3 10.2 25.5 16.2 48.7 20.6 78.5 2.6 17.5 2.7 67.4.1 75.2-.2.7-.6 3.3-.9 5.8-.4 3.8-2.1 12.6-4 21.5-9.1 42.7-35.3 93.2-67.7 130.5-20.8 24-30.7 32-35.8 28.8-1.4-.8-.9-1.7 3.7-6.6 25.6-27 52.7-70.2 66.3-105.6 1.1-2.8 2.4-6 2.9-7.1 5.7-12.1 16.3-53.8 18.5-72.5.3-2.5.7-6.1 1-8 2.1-16.8 2.2-52.4.1-63.7-.2-1-.7-4.3-1-7.3-5.7-45.7-28-95.1-59-130.5-21.8-24.9-57.7-53.3-92.9-73.5-13.8-7.9-16.9-9.2-29.7-12.9-9.5-2.6-14.3-3.6-29-5.7-2.5-.3-18.2-.7-35-.9-32.9-.4-38.2-1-57-7.2-4.1-1.4-7.9-2.6-8.5-2.7-.5-.1-5.5-1.6-11-3.3-22.9-7.1-55.4-14.9-78.4-18.8-1.9-.3-4.1-1-5-1.6-2.1-1.3 5.4-.3 13.4 1.8zm-44-.3c7.9.7 13.5 1.8 13.5 2.5 0 .4-2.6.4-5.7 0-6.7-.8-60.8-.3-70.1.6-3.5.4-7.1.4-8 0-3.3-1.3 2.4-2.4 16.5-3.1 7.6-.4 13.9-.7 14-.8.5-.4 34.8.3 39.8.8zm296.7 6c9.8 3.6 19.9 9 25.8 13.7 8.9 7 11.1 9.5 4.5 5.1-9.6-6.3-23.2-14.2-30.9-17.8-8.4-3.9-8.1-4.3.6-1zM643.1 305c8.4 1.7 15.5 3.3 15.8 3.5.7.8-.9.6-10.9-1.4-5.2-1.1-11.4-2.2-13.8-2.5-3.7-.5-9.1-2.5-7-2.6.4 0 7.6 1.4 15.9 3zm-55.6-.6c20.4 1 26 1.7 29.5 3.5 47.3 24.2 54.6 27.6 103.5 47.1 34.3 13.8 36.4 14.8 49.3 22.8 5.6 3.5 11.5 6.7 13 7.1 1.5.5 6.8.9 11.7 1.1 5 .1 10.6.3 12.5.5 9.3.6 21.4 1.7 22.9 2 .9.1 3.7.5 6.2.9 13 1.9 29.1 6 38.4 9.7 15.6 6.3 44.4 23.9 57.5 35.1 15.4 13.2 32.7 38.5 42.4 61.9 5.2 12.7 10.4 29.2 11.1 35.7.4 3.1.9 7 1.1 8.7.5 3.7.4 32.7-.1 37.5-.2 1.9-.6 7.5-1 12.5-.4 4.9-.8 10.3-1 12-.2 1.6-.7 7.4-1 12.9-1.3 20.3-10.4 41.9-27.2 63.9-4.8 6.4-22.2 24.7-23.3 24.7-.4 0 .1-2.5 1.1-5.4 2.6-8.2 3.1-11 3.4-23.7.2-7.5-.1-13.8-1-17.5-.7-3.3-1.2-8-1.1-10.6.3-4.8-2.5-29.6-3.9-34.8-.2-.8-.6-3.3-1-5.5-.3-2.2-.7-4.7-1-5.5-.2-.8-.6-2.6-.9-4-4.1-22.7-12.9-38.5-24.6-44.4-10.5-5.4-16.1-6.2-48.5-7.2-11.5-.3-22.3-.7-24-.9-1.6-.2-3.9-.4-5-.4-1.1-.1-3.8-1.8-6.1-3.9-2.2-2-7.6-6.8-12-10.7-7.2-6.4-13.9-12.5-23.3-21.4-4.3-4.1-31.4-22.9-44.3-30.7-18.8-11.4-40-21-60.3-27.3-10.9-3.3-29-7.6-37-8.7-2.7-.3-5.7-.8-6.6-.9-1.9-.4-13.9-1.4-22.3-2-5.6-.4-6-.6-12-6.5-11.3-11.5-20.3-16.1-31.2-16.1-8 0-18 3.4-26.8 9.2-6.9 4.5-8.9 7.7-6.6 10.4 2.1 2.5 5.4 1.7 12.4-3 12.2-8.1 22.3-9.5 32.2-4.5 6.5 3.4 13.1 8.6 12.1 9.6-.3.4-2.8.8-5.4.9-2.6.2-9.5.6-15.3.9-5.8.3-11.6.8-13 1-4.7.9-13 1.6-13 1.2 0-.4 13.9-4.8 19.9-6.3 5.1-1.3 5.4-3.6.5-2.7-4 .7-32.8 10-46.3 14.9-4.1 1.5-8.2 2.8-9.2 3-7.9 1.5-41.8 17.9-56.4 27.2-10.3 6.7-24.5 18.4-32.4 27l-7 7.5-3-2.3c-1.6-1.3-8.1-7.6-14.3-13.9-14.5-14.7-24.9-30.4-28.8-43.7-1.5-4.9-2-4.4 15.5-17.7 18.7-14.2 42-28.9 58-36.6 6.4-3.1 32.1-11.8 57.5-19.5 23.2-7 41.1-13.2 55-19.1 6.9-2.8 14.3-5.5 16.5-5.8 6.2-1 7.7-1.7 7.1-3.2-.4-.9 1.6-2.6 5.9-5.1 3.5-2 6.3-3.8 6.2-3.9-1.6-1.7-59.8-2.7-70.8-1.3l-4.5.6 2.4-6.1c3-7.2 3.3-16.7.8-23.5-.9-2.4-1.5-4.6-1.3-4.7.6-.7 8.2-1.4 21.1-2 7.2-.3 13.2-.7 13.3-.8.3-.3 23.5.2 33.8.8zm112.2-.8c-.3.3-1.2.4-1.9.1-.8-.3-.5-.6.6-.6 1.1-.1 1.7.2 1.3.5zm-265.7.8c0 .2-3 1.4-6.7 2.7-3.8 1.2-11.3 3.9-16.7 6-10.6 4.1-11.5 4.4-10.1 3 1.3-1.2 12.7-5.7 23.3-9.1 9.4-3 10.2-3.2 10.2-2.6zm20.4 1.1c-.3.8-2.5 2-4.8 2.6-10 2.6-28.8 8.5-38.1 12-11.3 4.4-14.1 4.9-7.5 1.5 7.7-4 20.5-8.6 43-15.4 8.2-2.5 8-2.5 7.4-.7zm208.3 4.1c-.3.3-1.2.4-1.9.1-.8-.3-.5-.6.6-.6 1.1-.1 1.7.2 1.3.5zM452 311.9c0 .8-1.8 1.4-7 2.6-.8.2-3.7 1.1-6.5 1.9-8.9 2.8-7.3 1.5 2.5-1.9 10.7-3.8 11-3.8 11-2.6zm204.8.7c14.5 1.9 57.5 14.4 75.6 21.9 4.9 2 9.6 3.8 10.6 4 .9.2 6.3 2.6 12.1 5.4 17.1 8.4 5.6 4.8-31.6-9.7-9.3-3.7-17.2-6.7-17.5-6.7-13.1-2-57-14.5-57-16.2 0-.3.7-.3 1.5.1.8.3 3.7.8 6.3 1.2zm5.3 6c11 3.7 33.1 9.7 40.6 10.9 2.1.3 11 3.4 19.8 6.9 19.2 7.6 32.4 12.4 46.5 16.6 5.8 1.8 11.9 3.8 13.5 4.6 3 1.3 6.8 1.8 24.5 3 7.7.5 10.9 1.2 17 3.9 11.7 5.2 27.1 11.5 32 13.2 2.5.8 4.9 1.9 5.4 2.4.6.5 1.8.9 2.8.9 1 0 1.8.4 1.8 1 0 .5.5 1 1 1 1.1 0 14 7.9 14 8.5 0 .2-1.7-.3-3.7-1.1-9.9-4.2-33.3-9.6-46.8-11-3.8-.3-7.7-.8-8.5-.9-.9-.2-7.6-.6-15-1-23.6-1.2-21.8-.8-31.3-7-11.2-7.2-19.1-10.9-52.7-24.3-35.9-14.4-71.2-29.8-68.9-30.1.3-.1 3.9 1 8 2.5zm-210 9c.5 2.8 2.5 7.5 4.4 10.5l3.3 5.3-10.1 3.7c-5.6 2-16 6.3-23.2 9.4-13.3 5.9-29.8 12.5-31.2 12.5-.4 0 .8-1.2 2.5-2.7l3.2-2.6-.6-8.1c-.3-4.5-.7-11.2-.9-14.9l-.2-6.8 3.6-1.5c5.1-2.2 29-9.9 39.1-12.7l8.5-2.3.3 2.6c.1 1.4.7 4.8 1.3 7.6zM430 319c-.8.5-1.9 1-2.5 1-.5 0-.3-.5.5-1s2-1 2.5-1c.6 0 .3.5-.5 1zm437.3 5.1c18.4 7.4 43.4 22.2 60 35.7 9.8 7.9 9.3 8.4-.9.8-4.8-3.6-13.8-9.5-19.8-13.1-6.1-3.6-12-7.1-13.1-7.8-7.4-4.6-11.3-6.7-22.6-12.3-7-3.5-13.2-6.4-13.8-6.4-.5 0-1.3-.5-1.6-1.1-.4-.5 1-.3 3.2.6 2.1.9 6 2.5 8.6 3.6zM391 320.5c0 .6-28.3 14.5-28.7 14.1-.3-.3 26.6-14.3 28-14.5.4-.1.7.1.7.4zm534 5.4c9 6.3 24.1 19.1 32.5 27.4 8 7.9 7 7.4-7.5-3.8-12.1-9.4-23.7-19.1-30-25.3-5.2-5.1-4.1-4.7 5 1.7zm26.9 0c3.6 2.7 8.6 7.1 11.1 9.7l4.5 4.8-6.2-5.3c-3.4-2.8-8.8-7.2-11.9-9.6-7.8-6.1-5.8-5.7 2.5.4zM254 322.4c0 .2-.8 1-1.7 1.7-1.6 1.3-1.7 1.2-.4-.4 1.3-1.6 2.1-2.1 2.1-1.3zm.8 5.3c-2.1 2-4 3.4-4.4 3.1-.7-.7 5.6-6.7 7.1-6.8.5 0-.7 1.7-2.7 3.7zm22.2-3.4c0 .2-1.5 1.6-3.2 3.3l-3.3 2.9 2.9-3.3c2.8-3 3.6-3.7 3.6-2.9zm442.8 1.3c3.2.9 9.5 2.8 14.2 4.4l8.5 2.8 23-.3c24.4-.4 35 .6 54.5 5.3 18.1 4.3 42.5 13.4 55 20.4 26.7 14.9 67.6 49.1 82.5 69.1 5.8 7.7 24.8 43.7 23.1 43.7-.2 0-2.5-3.7-5.1-8.3-18.3-31.6-41.3-58.3-70-81.1-6.7-5.4-32.3-19-44.5-23.7-27.3-10.5-42.7-15-63-18.3-13.5-2.2-16.4-2.5-36.5-3.1-15.7-.5-18.8-.9-24-3-3.3-1.3-10-3.8-15-5.6-12.1-4.3-13.2-5.3-2.7-2.3zm-464.5 12.2c-3.7 3.5-9.6 9.2-13 12.6l-6.3 6.3-1-3.6c-1-3.5-.9-3.7 4.3-8.6 6.9-6.5 13.5-12 14.7-12.1.6-.1 1.6-.2 2.3-.3.9-.1.8-.4-.2-1-1.1-.7-1-1.1.5-1.9 1.5-.8 2.3-.7 3.7.6 1.8 1.6 1.6 1.9-5 8zm-9.8-2.2c-6.1 5.3-8.7 6.1-3 .9 2.7-2.5 5.4-4.5 6-4.5.5.1-.8 1.7-3 3.6zm568.8-1.9c-.7.2-1.9.2-2.5 0-.7-.3-.2-.5 1.2-.5s1.9.2 1.3.5zm16.7 2.4c8.7 1.8 23.9 7.3 30.8 11.3 3.5 2 6.7 3.6 7 3.6.4 0 1.8 1 3.2 2.1 1.8 1.5.9 1.2-3.5-.9-9.3-4.6-32-12.8-42-15.3-4.9-1.2-9.4-2.5-9.9-2.9-.8-.8 2.1-.3 14.4 2.1zm-562.6 8c.7 7.6 4.8 15.3 9.6 18.5 3.5 2.3 11.4 4.6 12.5 3.6.3-.3.5-.1.5.4 0 1-8.9 8.9-9.4 8.3-.2-.2-1.5-3-3.1-6.2-1.5-3.1-2.9-5.7-3.1-5.7-.1 0 .8 3.1 2.1 7l2.4 7-3.2 2.2c-4 2.9-7.8 3.5-18.8 2.9-4.5-.2-18.9-11.2-18.9-14.5 0-1.5 26.6-29.6 28-29.6.4 0 1 2.7 1.4 6.1zm122.3 2.8c.2 4.5.5 9.1.6 10.2.2 1.2-1.3 3.6-3.9 6.4-2.4 2.4-6.2 6.8-8.5 9.7-2.9 3.7-6.7 6.8-12.8 10.3-32.2 18.9-56.3 41.3-77.4 71.7-6.1 8.8-21 35-26 45.8-10.2 21.9-17.8 47.5-20.3 68.4-.4 2.8-.8 5.8-1 6.6-.1.8-.3 2.1-.3 2.9-.1 2.2-21.6-25-30.5-38.6l-2.8-4.2 2.6-8c5.5-16.8 17.2-41.8 27.9-59.6 12.7-20.9 17.8-27.4 37.2-47.4 14-14.4 21.4-19.2 31-20.5 7.1-1 13-4.3 20.3-11.3 3.7-3.4 6.3-6.3 5.9-6.3-.5 0-4.1 1.9-8 4.2-10 6-20.7 10.7-22.5 10-1.2-.4.6-2.6 6.9-8.5 19.3-18.2 38-30.9 62.9-42.9 15.3-7.3 16.1-7.7 17.4-7.4.6.1 1.1 3.9 1.3 8.5zm387.8-7.4c34.5 3.2 67.6 13 102.5 30.4 18.9 9.5 27.6 15.8 45.1 33.1 33.2 32.8 55.2 68 70 111.7 2.1 6.2 3.6 11.3 3.3 11.3-.3 0-.1.8.5 1.7.9 1.8 4.2 16.9 6 27.8 3.2 19.3 3.6 48.9.7 66.5-3.4 21.3-5.8 33.5-10.1 51-8.3 33.5-14.6 50.4-24.9 66.4-7.4 11.5-14.9 25.8-16.1 30.8-.7 2.7-9.4 14.6-15.4 20.9l-3.7 4-6.8-21.3c-3.8-11.7-8-24.7-9.3-28.8-1.3-4.1-4.4-14.5-6.9-23-6.1-21-18-53.7-20.5-56.5-1.6-1.7-.9-2.6 1.7-2.3 2.8.3 4.4 3.4 15.1 29.8 8.9 21.8 20.2 56.9 24.7 76.4.9 3.6 1 3.4 9.8-8.9 14.7-20.6 28.5-45.7 37.2-67.7 5-12.8 10.2-29.8 11.1-36.8.3-2.5.8-5.6 1.1-7 .5-2.9 1-6.9 2.1-19 .9-9.8.8-74.9-.1-89-3.5-52.6-27.3-94.1-71.6-124.5-4.7-3.3-11.6-8.5-15.5-11.6-12.5-10.1-24.6-17.3-49.5-29.6-29.1-14.4-34.2-16-59.8-18.3-13.6-1.2-13.5-1.2-33.2-10.8l-16.5-8.1 11.5.4c6.3.3 14.2.7 17.5 1zm-241.1 2.3c.3.5-.1.9-.9.9s-1.2-.4-.9-.9c.3-.4.7-.8.9-.8.2 0 .6.4.9.8zm43.6.6c1.9.2 3.7.4 4 .5.3.1-1.7 1.4-4.4 2.9-4.8 2.8-5.1 2.8-10.5 1.6-3.1-.8-8.1-1.6-11.1-2-3-.4-6.6-1.1-8-1.6-1.4-.5-2.6-.9-2.7-.9-2 .6-9.3-.2-9.3-.9 0-.9 32.5-.6 42 .4zm-344 1c0 .2-.7.7-1.6 1-.8.3-1.2.2-.9-.4.6-1 2.5-1.4 2.5-.6zm295.3 1.1c5.3.3 10.7.8 12 1 1.2.2 7.2 1.1 13.2 2.1 13.5 2.1 15 2.7 10.2 4.3-1.9.7-4.8 1.4-6.4 1.7-1.5.3-3.2.7-3.8.8-.5.2-2.3.6-4 1-43.1 10.7-67.5 19.8-122.5 45.9-8.2 3.9-21.7 11.7-29.5 17.1-8.5 5.9-9.6 6.3-4.6 1.7 8.4-7.9 35.9-25.5 55.1-35.3 5.6-2.9 10.1-5.8 9.9-6.3-.2-.6-3.2-1-6.6-.9-3.5.1-6.3-.1-6.3-.4 0-.2 1.3-2.1 2.8-4.1 4.8-6.1 4.6-6.2-4.5-3-18.4 6.5-52 23-67.7 33.3-4.8 3.1-8.9 5.6-9.1 5.6-1.5 0 7.2-18.4 11.2-23.8 4.5-6.1 38.1-20.7 65.8-28.7 21.2-6.1 20.6-6 27.2-3.5 12 4.6 25 2.6 35.8-5.6 4.3-3.2 6.4-4.1 8.8-3.9 1.8.2 7.6.6 13 1zM233 346.4c0 .2-.8 1-1.7 1.7-1.6 1.3-1.7 1.2-.4-.4 1.3-1.6 2.1-2.1 2.1-1.3zm231.9 1c.9 1.1-.1 1.7-5.1 3-21.7 5.9-50.7 16.4-64.1 23.2-7.5 3.8-9.3 4.2-5.9 1.4 1.2-1 6.6-3.5 12-5.6 5.3-2 17.3-7 26.6-11.1 17.6-7.7 29.6-12.1 33.2-12.2 1.2-.1 2.7.5 3.3 1.3zm303.6 2.6c.3.6-.1.7-.9.4-1.8-.7-2.1-1.4-.7-1.4.6 0 1.3.4 1.6 1zm-543.9 19.7c-4.9 5.7-9.3 10.3-9.8 10.3-1.5 0-7.8-3.1-7.8-3.9 0-.3 5.7-6.3 12.8-13.4l12.7-12.8.5 4.8.5 4.8-8.9 10.2zm99.8-15.2c-2.7 1.9-5.3 3.5-5.9 3.5-1.2 0 8.6-6.9 9.9-6.9.5-.1-1.3 1.5-4 3.4zM957 358c.3.3 2.1 1.6 4 3 1.9 1.3 4.6 3.4 6 4.6 1.4 1.2 5 4.2 8 6.6 11 8.8 27.9 31.5 37 49.5 5.7 11.5 17.3 38.4 16.7 39-.2.1-2-2.8-4-6.5-7.3-13.3-10-17.8-15.5-26.7-14-22.5-29.6-43.3-46.5-61.8-8.4-9.2-11.7-13.7-5.7-7.7zm-404.2.5c-1.6 1.6-38.8 14.1-65.3 22-4.4 1.3-8.9 2.7-10 3.1-1.4.5-1.7.4-1-.3 2.2-2.4 36-14.2 57.5-20.3 18.6-5.2 19.8-5.5 18.8-4.5zm416 2c-.3.3-.9-.2-1.2-1.2-.6-1.4-.5-1.5.5-.6.7.7 1 1.5.7 1.8zm-763.4 2.9c-2.2 2.4-4.3 4.5-4.9 4.5-.5.1 1.1-1.9 3.5-4.4 5.6-5.8 6.4-5.8 1.4-.1zm35.6-3c0 .2-.8 1-1.7 1.7-1.6 1.3-1.7 1.2-.4-.4 1.3-1.6 2.1-2.1 2.1-1.3zm73.5 1.5c-3.2 2.9-12.6 10.1-12 9.2.7-1.3 11.7-10.1 12.5-10.1.2 0 0 .4-.5.9zm672 16.1c2.7 3 1.1 1.7-3.6-3-4.6-4.7-9.5-9.9-10.9-11.5-3.5-4.3 8.6 7.9 14.5 14.5zM235 366.7c-.1 1.3-12.8 14.8-13.4 14.2-.4-.4 12.2-14.9 13.1-14.9.1 0 .3.3.3.7zm91 .6c0 .3-9.3 7.8-18 14.5-3.3 2.6-2.9 2 1.4-1.9 6.9-6.2 16.6-13.6 16.6-12.6zm613 2.2c1.3 1.4 2.1 2.5 1.8 2.5-.2 0-1.5-1.1-2.8-2.5-1.3-1.4-2.1-2.5-1.8-2.5.2 0 1.5 1.1 2.8 2.5zm-645.5 1.1c-1.1.8-3.7 3-5.7 5-2 1.9-3.9 3.1-4.2 2.6-.3-.5 1.4-2.4 3.6-4.3 6.1-5 7.2-5.8 7.8-5.2.3.2-.4 1.1-1.5 1.9zm-95.5.2c0 .5-3 4.7-6.7 9.3-9.7 12.3-18.9 25-26.8 36.9-6 9-7 10.1-7.3 7.9-.4-3.7 14.5-25.1 29.8-42.9 3.1-3.6 6.7-7.7 8-9.3 2.5-2.9 3-3.2 3-1.9zm41.5 4c1.8 2.8 4.7 5.6 7.3 7 2.7 1.5 4.2 3 4.2 4.3 0 1 .9 4.6 2.1 7.9l2 5.9-2.9 2.9c-6.9 6.7-22 25.7-30.1 37.7-9.4 14-19 32.7-26.6 52-2.6 6.6-5.1 12.4-5.5 12.8-.7.8-12.6-23.4-18.6-38l-3.4-8.2 7.4-11.4c12.6-19.6 35.6-50.2 45.6-61 2.6-2.9 2.9-2.9 12.5-4.3l6-.9-6.7-.5-6.6-.5 4.6-5.2c2.6-2.8 4.9-5.2 5.2-5.2.3 0 1.9 2.1 3.5 4.7zm61.5-2.5c0 .2-1.7 1.9-3.7 3.8l-3.8 3.4 3.4-3.8c3.3-3.4 4.1-4.2 4.1-3.4zm146 3.2c-1.3 1.4-2.5 2.3-2.7 2.1-.2-.2-3.8.5-8 1.5s-7.9 1.7-8.1 1.5c-.2-.2 4.3-2.2 10-4.4 5.6-2.2 10.5-3.9 10.7-3.6.2.2-.6 1.5-1.9 2.9zm463 3.2c0 .7-5.8-3.6-6.6-4.9-.4-.7.9.1 2.9 1.6 2 1.6 3.7 3 3.7 3.3zm44 9c4.7 4.8 9.4 9.9 10.5 11.3 1.1 1.4-1.5-1.2-5.8-5.7s-10.8-11-14.5-14.4c-3.7-3.4-4.9-4.8-2.7-3.1 2.2 1.7 7.8 7 12.5 11.9zm-648-10.3c0 .2-.8 1-1.7 1.7-1.6 1.3-1.7 1.2-.4-.4 1.3-1.6 2.1-2.1 2.1-1.3zm-93.2 6.1c.1.1-4.3 6.3-9.9 13.6-11.5 15.2-27.8 38.4-33.4 47.6-2.1 3.5-4.1 6.1-4.5 5.8-.3-.2-1.5-3.2-2.5-6.5-1.8-6-1.8-6.2.1-9.8 7-13.1 25.8-38.6 37-50.2 1.9-1.9 3.4-3.8 3.4-4.2 0-.5 8.6 2.7 9.8 3.7zm700.7-2.5c1 1.1 1.6 2 1.3 2-.3 0-1.3-.9-2.3-2-1-1.1-1.6-2-1.3-2 .3 0 1.3.9 2.3 2zm-632.2.2c-.3.7-4 4.4-8.1 8.3-6 5.5-6.9 6.1-4.4 2.9 5.6-7.3 14.5-15.2 12.5-11.2zm19.7.3c-.7.9-3.2 3-5.4 4.7-3.5 2.6-3.4 2.4.9-1.5 5.2-4.8 6.7-5.8 4.5-3.2zm144.4 3.9c-11.3 6-23.1 13.3-34.8 21.3-4.3 3-8.8 5.6-9.8 5.8-1.1.3-2.7 1-3.7 1.7-1.4 1.2-1.5 1.1-.2-.4.7-1 5.4-4.1 10.5-7 12.5-7 30.3-18.9 34.9-23.2 3.3-3.1 4.5-3.6 8.5-3.6h4.7l-10.1 5.4zm-154.4-4c0 .2-.8 1-1.7 1.7-1.6 1.3-1.7 1.2-.4-.4 1.3-1.6 2.1-2.1 2.1-1.3zm146.5 3.2c-3.7 3.1-17.5 12.2-23.5 15.6-2.5 1.4-6.2 3.5-8.2 4.6-3.8 2.2-3.8 2.2-2.5.1 1-1.7 11.2-8.9 22.2-15.6 2.9-1.8 13.9-7.3 14.5-7.3.3.1-.8 1.2-2.5 2.6zm-167.7.8c-1.3 1.2-4.4 4.2-7 6.5l-4.7 4.2-3-5.3c-1.7-2.9-3.1-5.6-3.1-6 0-.4 2.1-.5 4.8-.2 2.6.3 6.7.1 9.2-.4 2.5-.6 4.9-1 5.3-1.1.4-.1-.2 1-1.5 2.3zm101-.3c-.7 1.1-6.2 5.3-12.3 9.2-14.2 9.3-33.4 24.6-44.9 35.8-5 4.9-9.3 8.9-9.4 8.9-.9 0 8.3-10.1 15.5-17.1 14-13.8 26.8-23.6 44.8-34.6 3.9-2.3 7.1-4.3 7.3-4.3.1 0-.3.9-1 2.1zm553.2 4.6c0 .7-5.6-3.5-7.1-5.4-.8-.9.5-.2 2.9 1.7 2.3 1.8 4.2 3.5 4.2 3.7zm-713.3 5.6c-5 6.2-12.3 15.4-16.1 20.5-3.7 5-7 9.2-7.2 9.2-.2 0 2.8-4.7 6.7-10.6 7.2-10.7 13.6-19.1 19.6-25.4 1.8-1.9 3.3-3.8 3.3-4.3 0-.4.7-.7 1.5-.7s-2.4 4.8-7.8 11.3zm215.8-9.7c-6.4 4.8-16.9 10.6-19.8 10.9-3.4.3-19.1 8-27.6 13.6-3.4 2.3-3.9 2.4-1.7.6 6.2-5.4 28.5-17.4 42.1-22.7 3.3-1.3 6.4-2.8 7-3.2.5-.4 1.1-.8 1.5-.8.3.1-.4.8-1.5 1.6zm-144.2 3.9c-.3.9-.8 1.4-1 1.1-.3-.3-.2-.9.2-1.5.9-1.6 1.5-1.3.8.4zm665.6 21c23.2 22 45.5 56.3 57.5 88.6 6 16.2 11.7 37.8 13.2 50.4.3 2.2.7 4.6.9 5.3 1 3.1 2 21.1 2 37.2 0 15.5-1.1 36.6-2 38-.2.3-.6 2.7-.9 5.3-1.4 11.7-6.8 35-11.8 50.7-8.1 25.4-22.9 57.4-36.8 79.5-9.9 15.8-25.2 36.1-35.6 47.3l-7.8 8.4-1.8-2.4c-2.5-3.2-4.5-10-5.7-18.8-1.7-12.4-2.1-14.9-5.2-30.5-4.5-22.4-10.8-45.8-21.4-78.5-7.2-22.1-8.5-26.3-8.5-26.7 0-.1 1-.3 2.3-.3 2.9 0 3.1.4 10.6 20.1 12.6 32.7 21 61.5 23.7 80.4.2 1.6.6 3.9.8 5.1.2 1.2.7 4.5 1.1 7.5.9 7.3 4 15.2 7.5 18.9 3.9 4.2 9.2 4.2 13.7 0 4.4-4.2 9.3-11.4 11.4-17.1 1-2.6 3.8-7.8 6.2-11.6 5.3-8.1 13.6-23.6 16.8-31.3 1.3-3 4.2-8.4 6.5-12 3.9-6.1 8.2-14 11.7-22 4.2-9.1 13.1-46.4 15.1-63 2.5-20.4 2.5-54.2 0-72-5.5-39.4-16.9-75-36.4-114-12.5-25-16.4-30.3-36.5-49.8-8-7.8-10.6-10.6-6-6.7 4.4 3.9 11.3 10.1 15.4 14zM280 391.3c0 .1-2.8 2.9-6.2 6.2l-6.3 6 6-6.3c5.5-5.8 6.5-6.7 6.5-5.9zm3.1 6.5c-8.8 8.7-10.6 9.6-2.6 1.4 3.8-4 7.3-7.2 7.7-7.2.5 0-1.8 2.6-5.1 5.8zm80.9 1.4c-1.5 4-3.3 9.8-3.9 12.9-1.1 5.2-1.7 6.1-6.9 10.2-13.9 10.9-30.4 27.2-41.7 41.2-23.5 29.2-40.1 64.2-47 99-2.3 11.6-2.7 14.9-4 28-1.1 10.8-.3 11-12.2-2.3-1.2-1.3-2-3.4-1.8-4.5.2-1.2.6-4.7 1-7.7 1-8.9 3.9-24.9 5.8-32.5.3-1.1 1.5-6.1 2.7-11 1.3-5 2.7-9.4 3.1-10 .5-.5.9-1.6.9-2.4 0-2.4 10.9-29.1 14.8-36.1 16.5-30.1 47.6-62.6 81.7-85.3 5.5-3.7 10.1-6.7 10.1-6.7.1 0-1.1 3.3-2.6 7.2zm-102.4-1.4c-1.7 1.6-1.8 1.6-.5-.5.7-1.2 1.5-2 1.8-1.7.3.2-.3 1.2-1.3 2.2zm748.1 10c9.7 14.3 19.8 32.3 25.3 45.2 2.3 5.2 4.7 10.8 5.5 12.5 2.8 6.2 4.5 10.8 4.2 11.1-.2.2-1.9-3.1-3.7-7.4-9.7-22.1-19.1-40-29-54.7-5.8-8.7-12.3-19.8-11.1-19.1.4.3 4.4 5.9 8.8 12.4zm-711.2-6.1c-1.5.8-2.9 1.2-3.3.9-.9-1 3.1-3.4 4.6-2.8 1 .4.7.9-1.3 1.9zm-45.3 7.3c-2.6 3.2-9 11.1-14.3 17.7-11.1 13.8-20.7 27.4-27.4 39-2.5 4.6-4.9 8.3-5.1 8.3-.8 0 9.8-20.4 13.4-26 3.6-5.5 16.2-23.1 17.2-24 .3-.3 2.3-2.7 4.4-5.4 6.9-8.5 14.8-16.6 15.7-16 .5.3-1.3 3.1-3.9 6.4zm-73.2-5.6c0 .2-.8 1-1.7 1.7-1.6 1.3-1.7 1.2-.4-.4 1.3-1.6 2.1-2.1 2.1-1.3zm-11.1 14.8c-8.9 12.4-10.2 14-7.3 9 2.4-4.1 14.2-20.2 14.9-20.2.2 0-3.2 5.1-7.6 11.2zm218.1-9.8c0 .3-3.5 3.1-7.7 6.3-4.3 3.2-8.4 6.3-9.1 7-1.9 1.8-3.5 1.6-2.5-.2.5-.8 4.9-4.2 9.8-7.4 9.6-6.4 9.5-6.3 9.5-5.7zm.9 3.9c-1.9 1.7-5.3 4.7-7.5 6.6-2.1 1.9-6.1 5.5-8.7 8-4.2 4-4.7 4.3-4.4 2.2.2-1.6 3.9-5.1 11.8-11.2 11.8-9.2 15-11.2 8.8-5.6zm9.1-2.9c0 .2-1.2 1.1-2.7 2l-2.8 1.7 2.4-2c2.3-2.1 3.1-2.5 3.1-1.7zm-129.7 4.3c-1.9 2.1-6.9 7.7-11 12.5-8 9.3-10.6 11.6-5.1 4.5 5.3-6.8 17.9-20.7 18.8-20.7.5 0-.7 1.7-2.7 3.7zm-6.3-2.4c0 .2-1 1.2-2.2 2.3l-2.3 1.9 1.9-2.3c1.8-2.1 2.6-2.7 2.6-1.9zm132 8.1c0 .2-.8 1-1.7 1.7-1.6 1.3-1.7 1.2-.4-.4 1.3-1.6 2.1-2.1 2.1-1.3zm-125 .9c0 .2-1 1.2-2.2 2.3l-2.3 1.9 1.9-2.3c1.8-2.1 2.6-2.7 2.6-1.9zm77.4 13.4c-33.7 33.1-58.6 72.9-74.5 118.8-4.2 12.2-4.9 12.4-1.9.6 9.8-38.6 29.9-74.3 58.4-104 7.3-7.5 27.5-26 28.5-26.1.3 0-4.5 4.8-10.5 10.7zm37.1-7.5c-2.9 4.3-14.5 15.3-14.5 13.8 0-2.4 12.5-15.1 15.8-15.9.1-.1-.4.9-1.3 2.1zM261 428.4c0 .2-.8 1-1.7 1.7-1.6 1.3-1.7 1.2-.4-.4 1.3-1.6 2.1-2.1 2.1-1.3zm97 2c0 .7-5.6 6.9-12.4 13.7-14.3 14.3-25.6 27.7-36.9 43.6-4.3 6.2-8.1 11.3-8.3 11.3-.6 0 9.6-15.8 15.6-24.1 9.3-13.1 21.8-27.6 31.8-36.9 5.3-5 9.7-9 9.9-9 .2 0 .3.6.3 1.4zm-207 5.4c0 .4-2.1 4.1-4.7 8.2-2.5 4.1-7.9 13.8-11.9 21.5-4.1 7.7-7.4 13.7-7.4 13.2 0-1.1 12.9-27.3 17.8-36 3.9-6.8 6.2-9.4 6.2-6.9zm875.9 9.1c7.1 14.1 13.2 27.9 17.9 40.6 4.3 11.3 10.6 32.8 11.6 39 .3 1.9 1 5.4 1.5 7.7.6 2.4 1.3 5.9 1.6 7.8.3 1.9 1.2 6 2 9 .7 3 1.7 7.3 2 9.5 1 6 1.4 49.1.5 56-.5 3.3-1.1 9.1-1.5 13-.8 8.2-2.7 15.7-14.2 56.4-10.7 38-15.3 49.7-30.2 76.9-13.6 24.7-35.8 53.1-62.1 79.1-11.8 11.7-18 16.5-19.4 15.1-.8-.8-.2-2 2.4-4.2 11.5-9.9 25-23.3 30.7-30.3 13.7-16.7 30.9-44.6 46.8-76 18-35.4 29.6-67.1 35-96.2 2.8-15 4.2-25 5-34.8.6-8.5.6-37.4-.1-41-.3-1.6-.2-2.7.1-2.3.4.4.9 2.2 1.1 4 .3 1.8.8 5.9 1.2 9.1.4 3.2 1.2 5.7 1.7 5.7 1.1 0 1.1-1.6.1-11.5-1.1-10.5-2.3-18.8-4.2-29-.2-1.1-1.3-7.2-2.4-13.5-3-16.6-17.5-62.3-27.9-88-2.7-6.6-4.7-12-4.5-12 .2 0 2.6 4.4 5.3 9.9zm-668.5-7.7c-.7 1.5-12.4 11.2-12.4 10.2 0-.9 11.2-11.4 12.1-11.4.5 0 .6.6.3 1.2zm-54.4 3.1c0 .2-1.2 1.4-2.7 2.8l-2.8 2.4 2.4-2.8c2.3-2.5 3.1-3.2 3.1-2.4zm295.6 1.8c.8.7 2.3 2.4 3.4 3.9l1.8 2.6h-7.1c-6.9 0-23.9 1.2-27.5 1.9-.9.1-3.7.6-6.2.9-2.5.3-5.5.8-6.6 1-1.2.2-3.8.7-5.7 1-7.9 1.3-23 4.8-28 6.6-38 13.5-67.8 33-86.9 56.7-5.2 6.6-5.3 6.7-10.3 2.8-1.9-1.6-1.9-1.7 3.5-6.6 16.2-14.7 43.3-33.8 68-47.8 21.2-12.1 26.7-14.3 47.5-18.7 20.5-4.3 51.2-6.7 54.1-4.3zm26.2 1.4c3.5.4 7.3.8 8.5 1.1 1.2.2 3.6.6 5.2.8 4.8.7 22.5 4.5 28 6 2.8.8 11.1 4.2 18.5 7.6 16.7 7.6 15.1 6.9 29.5 12.9 39.9 16.4 55.8 26.9 86.3 56.7 13.1 12.8 14.4 14.4 12 14.4-2.1 0-5.3-2.3-13.2-9.6-14.7-13.4-21.6-18.8-41.1-31.8-25.7-17.2-39.9-24.6-69-35.9-2.2-.9-8.2-3.5-13.4-5.7-15.8-6.9-26.4-9.2-48.6-10.6-6-.3-11.3-.8-11.7-1.1-.4-.2-1.7-1.7-2.9-3.4l-2.1-3 3.8.5c2.2.3 6.7.8 10.2 1.1zm-277.3 8.2c-3.7 4.3-8.8 9.7-11.5 12.1-10.6 9.3-22.9 28.4-40.1 62.2-12.6 24.7-17.3 37.5-19.4 52-1.3 9.1-1.6 12.3-2.1 23.5-.4 6.6-.8 12.2-1 12.4-.1.1-2.1-1.2-4.3-3-5-3.9-5-4.7-1.6-23.1 5.8-31.4 16-57.4 33.8-85.7 9.7-15.5 19.5-27.6 32.9-40.6 8.9-8.7 18.7-17.4 19.6-17.5.1 0-2.7 3.5-6.3 7.7zm-197.4 26.6c-5.2 10.3-10.3 22.6-14 33.7-3.3 9.6-7.1 20.6-8.6 24.5-5.7 15.4-12.3 42.5-15.1 61.4-.4 2.5-.8 5.3-.9 6.2-3 16.9-2.3 71.8 1.1 83 .7 2.3-6.7 8.5-7.8 6.5-.4-.7-1-5.1-1.3-9.7-.4-4.6-.8-9.8-1-11.4-.6-3.9-.6-48.1-.1-52 .4-2.6.7-6 2.1-21.3.2-1.8.6-4.5.9-6 .5-2.5 1.2-7.1 2.1-13.2.7-4.8 1.6-9.6 3-15.6.8-3.4 1.6-7.3 1.9-8.7 1.8-10.1 10.8-38.9 17.6-56.7 6.2-16 16-37.5 21.4-46.9l1.9-3.3 2.4 6.6 2.4 6.7-8 16.2zm453.1-26.4c3.2.1 4.1.8 8.7 6.6 2.8 3.5 5.1 6.8 5.1 7.2 0 .5-8.7.8-19.3.8-20.5 0-34.8.9-37.7 2.5-.9.5-5.1 1.6-9.2 2.5-44.8 9.2-78.7 32-92.4 61.9-1.6 3.5-3 5.4-3.7 5-.7-.4-4.8-2.9-9.3-5.7l-8.1-5 3.6-6.3c1.9-3.4 4.8-7 6.3-7.9 1.6-.9 9.7-7 18.2-13.5 40.5-31.2 48.2-35.5 76.1-42 12.1-2.8 12.9-3 17.9-3.6 2.4-.2 5.5-.7 6.7-.9 1.3-.3 8.5-.8 15.9-1.1 7.4-.4 13.6-.8 13.8-.9.2-.2 1.1-.2 2 0 .9.2 3.3.4 5.4.4zm78 1.1c7.3 2 28.7 11 40.8 17.2 13.8 7.1 16.3 9.1 6 4.7-45.6-19.4-59.5-25.5-52.8-23.5.9.3 3.6 1 6 1.6zm-330.3 4.5c-5.2 5.4-8 7.6-4.3 3.3 6-7 7.8-8.8 8.6-8.8.5 0-1.4 2.5-4.3 5.5zm277-4.1c4.1.4 7.8.9 8.1 1.1.3.2 2.6.6 5 .9 9.5 1.2 26.4 5.3 39.5 9.8 6.3 2.2 17.5 7.8 36 18.3 13.3 7.4 24.1 13 35.5 18.3 9.5 4.4 19.7 11.6 35.1 25 12.9 11.2 17.3 15.7 14.4 14.9-1.1-.3-4-.8-6.5-1.1-3.7-.5-5.6-1.7-10.5-6.2-23.5-21.6-50.9-40-78.2-52.2-15.2-6.9-40.1-14.9-54.8-17.7-2.2-.5-4.4-.9-5-1.1-.5-.1-5.7-1-11.5-1.9-8.4-1.3-10.8-2-12.3-3.8-2.3-2.9-4.1-6.1-3-5.4.4.2 4.2.8 8.2 1.1zm23.8 1.2c-.3.3-1.2.4-1.9.1-.8-.3-.5-.6.6-.6 1.1-.1 1.7.2 1.3.5zm-287.9 7.3c6.4 16.6 24.7 39.6 44 55.3l3.3 2.7-4.7 9.3c-2.6 5.1-5.9 11.1-7.4 13.3-4.2 6.1-8 15.2-8.6 20.4-.3 2.5-1.2 7.3-2 10.7-2 8.4-.7 17.7 4 28.5 1.6 3.8 8.6 13.2 12.1 16.2 2.8 2.4 10.6 7.1 12.5 7.4 10.4 1.8 28.8 2.1 53.3.9l14.7-.7 12.8 6.3c7 3.4 17.9 9 24.2 12.4 20.3 10.9 24 13.1 24 14.6 0 3 17.4 45.8 26.6 65.7 2.4 5.1 4.4 9.5 4.4 9.6 0 .3 4.4 9.9 13 28.2 5.5 11.5 6.5 14.3 5.3 14.4-.4 0-1.7.2-2.8.4-10.3 1.8-26.4 2.9-42 2.9-28-.1-44.4-4.2-50.3-12.5-3.3-4.7-10.2-8.8-41.7-25.4-49.1-25.9-91.4-52-126.5-78-16.9-12.6-37.8-29.7-46.5-38.2-1.7-1.6-1.2-14.5 1.1-30.3 2-13.6 8.6-36.6 15.1-52.5 11.9-29.3 32.8-61.9 52.5-81.7 3.1-3.2 6-5.8 6.5-5.8.4 0 1.8 2.7 3.1 5.9zM506 458c-.8.5-1.9 1-2.5 1-.5 0-.3-.5.5-1s2-1 2.5-1c.6 0 .3.5-.5 1zm-271.2 2.2c-8.9 13.8-26.3 47.8-31.3 61-2.1 5.6-4 5.5-2.1 0 2.9-8 14.6-32 20.6-42.3 5.2-8.7 13.2-20.9 13.7-20.9.3 0-.1 1-.9 2.2zm266.7-.4c-.6.5-5.5 3.5-11 6.7-16.3 9.5-29.2 18.3-42.5 28.6-19.7 15.5-19.9 15.6-14.4 10.3 16.5-16 33.2-27.8 58.9-41.5 8.9-4.8 10.8-5.7 9-4.1zm139 6.7c11.6 2.9 19.7 5.3 17.5 5.4-.8 0-3.3-.4-5.5-.8-2.2-.5-5.6-1.2-7.5-1.5-1.9-.2-5.6-.8-8.2-1.1-2.6-.4-5.4-1.5-6.4-2.6-2.2-2.4-1.9-2.4 10.1.6zm-498.4.8c-1 .9-1.1.8-.5-.6.3-1 .9-1.5 1.2-1.2.3.3 0 1.1-.7 1.8zm473.6 1.6c4.7.1 5.4.4 8.3 4.1l3.1 3.9-14.3-.7c-25.4-1.3-49.7-.8-62.3 1.3-2.1.3-1.1-.4 3.1-2.4 3.3-1.6 8.5-3.2 11.5-3.6 3-.5 6.5-.9 7.9-1.1 1.4-.2 6.6-.7 11.5-1 5-.4 9.1-.7 9.2-.8.1-.1 12.7 0 22 .3zm46.4.9c-.7.2-1.8-.1-2.3-.6-.8-.8-.4-.9 1.3-.5 1.3.4 1.8.8 1 1.1zm-522.5 2.9c-.8 1.5-1.5 2.5-1.6 2.1 0-1.2 2.3-5.8 2.7-5.4.3.2-.2 1.7-1.1 3.3zm540.1 1.7c12.2 3.8 26.3 9.6 38.8 15.8 10 5 23.3 12.7 24 13.8.3.5-3.2-1.3-7.7-3.9-11.3-6.4-42.1-19.4-65.5-27.6-2.9-1.1-5.3-2.2-5.3-2.7 0-.4 1-.4 2.3.1 1.2.5 7.2 2.5 13.4 4.5zM172.6 493c3.4 7.1 6.3 14.9 7.5 20.4 1.1 5 2.2 9.2 2.4 9.4.2.2-.6 2.9-1.6 6-2.8 8-7.6 26.7-8.3 32.7-.7 5.3-1 7.5-2.1 14-.3 2.3-.8 7.4-1 11.5-.3 6.8-1 13.6-2 19.6-.2 1.2-.6 7.8-1 14.5-.4 6.8-1 12.7-1.4 13-.3.3-3.7 1.4-7.5 2.4-18.8 4.9-29.6 15.3-33.1 32-.7 3.4-1.8 7.3-2.6 8.6-1.2 2.2-1.4 1.6-3.1-8.1-1.5-8.8-1.7-14.2-1.3-33.1.6-27.1 1.3-39.3 3-47.9.4-1.9 1.4-8.1 2-12 .5-3 .7-3.7 3.5-16 3.5-15.4 8.2-30.9 13-43 2.6-6.6 19.4-41.5 21.7-44.9l1.6-2.4 2.4 5.9c1.4 3.2 4.9 11.1 7.9 17.4zm472.7-20.4c2.1.3 9.2 1.9 15.8 3.5 32.6 7.9 61.5 21.2 92.2 42.1 16.2 11.2 10.7 8.6-15.2-7-4.7-2.8-11-6.1-14-7.3-3.1-1.2-8.1-3.3-11.1-4.7-9.1-4.1-22.9-9.3-32.7-12.3-9.5-2.9-32.7-7.9-36.8-7.9-2 0-8.5-5.8-8.5-7.6 0-.4 1.5-.4 3.3 0 1.7.3 4.9.8 7 1.2zm-318.9 8.6c-3.1 4.6-7.1 11-9 14.3-1.8 3.3-4.5 7.3-5.9 9-4.8 5.7 7.7-14.9 16.2-26.8 5.5-7.6 4.7-5.4-1.3 3.5zm161.5-.5c-5.2 3.7-13.9 10.3-19.3 14.6-5.5 4.4-13.5 10.4-17.8 13.4-6.2 4.4-8.4 6.6-11 11.4-3.2 5.9-4.2 6.7-5.2 5-1.5-2.4 18.2-23 31.5-32.8 7.5-5.6 28.5-18.2 30.3-18.3.4 0-3.4 3-8.5 6.7zm56.6-4.7c-.3.5-1.1 1-1.7 1-.5 0-2.4.6-4.1 1.4-1.8.8-9.5 4-17.2 7.1-7.7 3.2-17.1 7.3-20.8 9.1-3.8 1.8-6.4 2.7-5.7 2 2.1-2.6 25.6-13.6 37.5-17.5 6.6-2.2 12.1-4 12.3-4 .2-.1 0 .3-.3.9zm-407.2 1.5c-.3.9-.8 1.4-1 1.1-.3-.3-.2-.9.2-1.5.9-1.6 1.5-1.3.8.4zm898.3 3.1c.8 2 1.3 3.8 1.1 4-.2.2-1.1-1.4-2-3.6-1.9-5-1.2-5.3.9-.4zm-297.3 10.3c3.2 1.8 5.6 3.5 5.4 3.7-.5.5-25.8-13.4-27.2-14.8-1.2-1.3 13.9 6.4 21.8 11.1zm308.5-9.4c-.3.3-.9-.2-1.2-1.2-.6-1.4-.5-1.5.5-.6.7.7 1 1.5.7 1.8zm-912.2 2.2c-.8 1.5-1.5 2.5-1.6 2.1 0-1.2 2.3-5.8 2.7-5.4.3.2-.2 1.7-1.1 3.3zm406.4.2c-6.3 2-12.5 4.3-13.7 4.9-1.3.7-2.3 1-2.3.7 0-1.1 11.2-5.8 17.9-7.6 11.1-2.9 10.2-2-1.9 2zm35 0c-5.2 2-10.3 3-16.5 3.4-4.9.4-9.9.8-11 1.1-4.3.8-11.9 1.7-11.5 1.3 2.2-2.2 33.6-8.5 42.5-8.5 3.8-.1 3.6.1-3.5 2.7zm20.3-2.2c-.7.2-1.9.2-2.5 0-.7-.3-.2-.5 1.2-.5s1.9.2 1.3.5zm31.4.7c.3.3-2.9.6-7.3.7-4.3 0-8.6.2-9.4.3-.8.2-4.2.6-7.5 1s-7.6.8-9.5 1.1c-3.2.4-3.1.3 1-1.1 2.5-.8 6.8-1.8 9.5-2.1 2.8-.3 5.1-.7 5.3-.8.7-.6 17.3.2 17.9.9zm-40.2 1.7c-6.2 2.5-8.5 3-8.5 2 0-.9 9.3-3.9 12-4 .8 0-.7.9-3.5 2zm52.3 6.7c13.8 13.2 23.6 18.9 50.7 29.5 20.8 8.1 40.3 14.6 60.5 20.2 4.5 1.2 7.7 3.4 17.5 11.6 22.6 19.2 51.8 50.3 63.2 67.4 5.3 8 13.2 21.4 17.7 29.9l3.5 6.8-7.2-.6c-39.8-3.2-83-23.1-114.4-52.7-13.2-12.4-24.9-18.9-54.3-30.4-28.5-11.1-56.8-19.6-70.8-21.2-11.7-1.3-25.8 5.6-41.1 20.2l-7.9 7.6-3.4-4.8c-8.5-11.9-12.1-21.2-11.4-29.8.5-6.2 7.5-22.7 13.2-31.5 8-12.2 22.4-24 29.4-24 1.9-.1 9.1-.9 16-1.9 6.9-.9 17.2-1.7 22.8-1.8h10.4l5.6 5.5zm394.9-2.6c-.3.8-.6.5-.6-.6-.1-1.1.2-1.7.5-1.3.3.3.4 1.2.1 1.9zm-904.5 6.4c-3.5 8.5-11.5 31.7-13.7 39.9-5.5 19.8-10.5 43.2-12 55-.3 2.7-.7 5.9-.9 7-.7 3.6-2 20-1.8 21.2.2.7-.2 1.3-.7 1.3-.5 0-.8-1-.6-2.3.2-1.2.6-6.3 1-11.2.4-5 .8-9.7 1-10.5.2-.8.6-3.8.9-6.5 2.7-20.8 10.7-54.1 17.6-73 5.6-15.2 11.1-28.7 11.7-28.2.2.2-1 3.5-2.5 7.3zm534.3-3.5c15.5 4.8 19.9 6.5 33.1 13.3 11.6 5.9 32.4 18.2 34.9 20.7 2.6 2.6-50.1-17.4-63-23.9-6.6-3.3-17.6-11-19-13.3-.8-1.2 1.7-.6 14 3.2zm-149 1.5c-2.2 1.9-7.4 5.7-11.5 8.4-7.8 5.2-12.5 10.5-16 18.1-1.1 2.4-3.7 6.6-5.6 9.4-3 4.2-3.3 5.1-2.1 5.9 1.3.8 1.3 1.5.1 4.8-1.1 3.3-1.1 4 .1 4.4 1.1.5 1.1 1.1.3 3-1.1 2.3-1.1 2.3-6-2.8-4.6-4.8-4.9-5.5-4.5-9.3.9-8.8 10.3-22.9 20.8-31.2 4.4-3.5 25.5-14.2 27.9-14.2.3 0-1.3 1.6-3.5 3.5zm45-2.7c-1.1 1-22.1 10.2-30.5 13.4-6 2.2-6 2.2-12.7 12.1-5.4 8-10.2 19.6-10.2 24.6 0 3.3.7 4 12.6 13 13.7 10.2 35.3 27.8 35.3 28.6 0 .9-6-3-12.8-8.4-7.8-6.3-26.9-19.9-35.9-25.7-4.8-3-6.3-4.6-6.4-6.5-.6-9.9-.1-15.9 2.1-24 1.3-4.8 7.2-11.3 15.5-17 6.4-4.4 19.4-7.9 36.5-10 3.6-.4 6.7-.8 7-.9.2 0 0 .3-.5.8zm12.4 1.9c-12.5 8-22 21-29.5 40.2-3.3 8.6-3.6 10.2-3.2 16.7.4 5.7 1.3 8.7 4.4 15 2.1 4.3 4 8.2 4.2 8.6.2.5-5.1-3.6-11.9-9.1-6.8-5.4-15.9-12.5-20.1-15.6-4.3-3.2-7.8-6.4-7.8-7.1 0-4.6 6.4-18.4 12.6-27.1 3.9-5.5 5-6.4 11.1-8.7 3.7-1.4 13.6-5.5 21.8-9.1 10.1-4.4 16.3-6.6 18.9-6.6h4l-4.5 2.8zm465 4.2c0 .8-.6 0-1.4-1.9-.8-1.8-1.5-3.6-1.5-4 .1-1.3 2.9 4.5 2.9 5.9zm-597.5-2.3c-1.7 1.6-6.8 7-11.4 12-4.5 5.1-8.7 9-9.2 8.7-1.4-.9 20.7-23.4 22.9-23.4.4 0-.7 1.2-2.3 2.7zm271.3 12.6c16.4 8 43.7 24.7 40.4 24.7-.7 0-3.4-1.5-6-3.4-7.6-5.6-17.8-11.6-32.6-19.3-16.3-8.5-17.4-9.6-1.8-2zm356.2-.3c0 .9-.4.8-.9-.5-.5-1.1-.9-2.7-.9-3.5 0-.9.4-.8.9.5.5 1.1.9 2.7.9 3.5zm-852.6-1.8c-.5.7-2.4 4.8-4.3 9.1-1.8 4.2-3.5 7.6-3.7 7.4-.2-.2.5-2.4 1.5-4.8 3.9-9 6.5-14 7-13.5.3.3.1 1.1-.5 1.8zm270.6.1c-9.5 8.4-17.9 23-17.9 31 0 4.4.4 5.3 5.3 10.4l5.2 5.6-5-2.8c-2.7-1.5-7-3.9-9.5-5.3s-4.7-2.6-4.8-2.8c-1-.8 8.6-17.7 13.5-23.6 5-6.2 14-14.8 15.3-14.8.3.1-.7 1.1-2.1 2.3zm18.4 0c-1.5 2.5-9.7 9.3-8.5 7.1.9-1.8 7.9-8.2 9-8.4.2 0-.1.6-.5 1.3zm-388.2 4.4c-1.2 2-1.4 1.4-.5-1.2.4-.9.9-1.4 1.1-1.1.3.2 0 1.3-.6 2.3zm635.4 4.1c9.3 6 23.9 16.9 29.5 22.1 5.5 5.1 2.3 3.8-4-1.6-6.2-5.4-19-15-27.7-20.8-4-2.6-7.3-5-7.3-5.2 0-.5.4-.3 9.5 5.5zm319.9 7.2c.8 4.1 1.8 8.6 2 10 .2 1.4.7 3.6 1 5 .3 1.4.8 4.4 1.1 6.7.5 4.2 1.1 8.3 2 15.3.7 5 1.9 53.6 1.3 53-.3-.3-.8-10.4-1.1-22.5-.4-12.1-.9-24-1.2-26.5-.3-2.5-.7-6.1-1-8-1.4-12-1.9-15.7-4.2-27-1.4-6.9-2.7-13.9-2.9-15.5-.3-2.8-.3-2.8.5-.5.5 1.4 1.6 5.9 2.5 10zm-958.1-1.5c-.3.9-.8 1.4-1 1.1-.3-.3-.2-.9.2-1.5.9-1.6 1.5-1.3.8.4zm384.9 4.1c-.5 2.2-.8 7.2-.8 11.1.1 4-.3 7.3-.7 7.3-.4 0-1.9-.7-3.3-1.7-2.3-1.4-2.5-2.1-1.9-6.1.3-2.5 1.1-5.5 1.7-6.6 1.6-3.2 5.2-8.5 5.6-8.2.1.2-.1 2.1-.6 4.2zm-6.8 1.1c-1.7 4.4-5.8 10.2-4.8 6.8 1.3-4.4 4.8-10.5 6-10.5.1 0-.4 1.7-1.2 3.7zm-381.8 6.9c-1.4 4.9-3.9 15.4-5.7 23.4-1.7 8-3.5 14.9-3.9 15.3-.6.7-.1-2.3 2.4-13.8 3.1-14.1 8.7-34.8 9.3-34.1.2.2-.7 4.4-2.1 9.2zm303.8-6.1c-.9 1.4-1.8 2.5-2.1 2.5-.5 0 .5-1.8 2-3.8 1.7-2.2 1.8-1.3.1 1.3zm10.6 4.4l2.5 2-2.3 3.8c-1.3 2.1-4.4 8-6.9 13-8 16.2-7.5 25 2.5 44.6.5 1-16.9-8.1-18.5-9.6-.8-.8-1.3-5-1.4-11.7-.2-9.8 0-11 3-18 3.4-8 10.1-20.7 13.3-25.2 2.1-3 2.7-2.9 7.8 1.1zm624.8 1.8c.6 2.4.7 4.3.3 4.3-.4 0-1.2-2.3-1.7-5-1.3-6.1.1-5.3 1.4.7zm-795.7 3c-1.2 2-1.4 1.4-.5-1.2.4-.9.9-1.4 1.1-1.1.3.2 0 1.3-.6 2.3zm794.4 11.9c.3 3.8 1 9.7 1.4 13.2.4 3.5.5 6.5.1 6.7-.4.2-.7-.1-.7-.8 0-.7-.3-4.4-.7-8.2-.6-6.5-1-9-2-15.5-.2-1.4-.7-4.3-1-6.5l-.6-4 1.4 4.1c.7 2.2 1.7 7.1 2.1 11zm-620-4.4c-4.8 9.6-6.1 16.4-4.6 23.3 2.4 10.6 11.5 14.3 37.1 15.1l14.5.5-2.2-2.3c-1.2-1.2-5.3-4.3-9-6.8-8.4-5.7-9.6-7.9-8.3-15.1.6-2.9 1.2-5.4 1.5-5.7.2-.2 2.4.7 4.8 2.1 5.7 3.4 40.3 20.7 41.2 20.7.7 0 7.8 5.4 11.1 8.5 1.8 1.6 5.3 4.5 15.7 12.9 7.1 5.8 9.6 8.4 9.2 9.5-.4.9-.9 3.1-1.2 4.9-.4 2.2-1 3.1-1.9 2.8-7-2.7-27-5.1-51.4-6.1-12.4-.5-22.2-1.3-27-2-1.4-.2-4.5-.7-6.9-1-4.9-.7-20.4-5.1-23.1-6.5-2.8-1.5-9.1-11.8-11.1-17.9-1.2-3.7-1.7-8-1.5-12.6.3-6.1.9-8.3 5.3-17 7.4-14.8 8.6-16.7 10-15.2 1 .9.5 2.7-2.2 7.9zm16.6 1c8.3 5.2 9.9 6.6 9.5 8.3-1.4 5.9-1.7 11.9-.6 14.6.8 1.8 3.8 4.6 8.1 7.4 3.8 2.5 6.9 4.7 6.9 4.9 0 .4-16.6-.2-21.3-.8-10.5-1.5-18.9-5.3-20.6-9.5-1.6-3.8-1.9-8.9-.9-13.3 1.2-5.6 7.1-17.8 8.5-17.8.2 0 4.9 2.8 10.4 6.2zm605.6-3c-.3.7-.5.2-.5-1.2s.2-1.9.5-1.3c.2.7.2 1.9 0 2.5zm-852.3-.7c-.4.8-.8 1.5-1 1.5-.2 0-.4-.7-.4-1.5s.4-1.5 1-1.5c.5 0 .7.7.4 1.5zm52.9 7.3c-.9 3.9-1.9 7.2-2.3 7.2-.4 0-.2-2.1.5-4.8.7-2.6 1.6-6 2-7.6.3-1.5.8-2.7 1-2.5.2.3-.3 3.7-1.2 7.7zm238.3-4.5c.1.9-.2 1.9-.7 2.3-.5.3-.9.2-1-.3 0-.4-.2-1.6-.4-2.6s.1-1.7.7-1.5c.6.2 1.2 1.2 1.4 2.1zm9.2 4.5c2.6 3.4 1.4 4.3-2.8 2.2-3.1-1.6-4-2.6-4-4.6 0-2.6 0-2.6 2.8-.9 1.5 1 3.3 2.4 4 3.3zM202 543.7c-.1.5-.7 1.9-1.5 3.3-1 1.8-1.4 2-1.5.8 0-2.3 1.1-4.8 2.1-4.8.5 0 .9.3.9.7zm566.7 4.1c3.2 2.7 8.7 7.7 12.3 11.2 5.6 5.4 5.2 5.1-2.6-1.6-4.9-4.4-10.8-9.4-13-11.1-2.1-1.8-3.6-3.3-3.2-3.3.4 0 3.3 2.2 6.5 4.8zm7.5.9c11.9 10.7 27.1 27.2 36.7 39.8 2.9 3.8 3.9 5.4 2.1 3.5-1.7-1.9-4.4-5-5.8-6.9-5.7-7.4-19.3-21.5-31.2-32.4-4.6-4.2-7.9-7.7-7.2-7.7.6 0 3.1 1.7 5.4 3.7zm-289.8.4l1.5 3.1-2.7-.7c-3.4-.8-3.2-.7-2.5-3.3.7-3 1.9-2.8 3.7.9zm45.1 19.1c1.1 1.1-1.6-.1-6-2.7s-11.5-6.8-15.7-9.3c-4.3-2.4-7.8-4.8-7.8-5.3 0-.4-.3-1.5-.7-2.5-.7-1.8 26.3 15.9 30.2 19.8zm-314.1-2.5c1.2 2.1 1.6 5.4 1.7 13 0 7.4-1.3 11.7-3.4 11-.7-.2-3.8-6.8-7-14.8-4.9-12.3-5.7-15.1-5.3-19.2.3-2.6.8-5.2 1.1-5.7.5-.8 9.5 10.3 12.9 15.7zM497 552c4.6 2.4 5.3 4.4 1.3 3.4-3-.7-6.3-3.1-6.3-4.6 0-1.2.6-1 5 1.2zm304.1 1.7l3.4 3.7-3.7-3c-2-1.6-3.7-3.2-3.7-3.7-.2-1.2.4-.8 4 3zm17.4 2.7c23.1 24.7 50.6 64.4 62.8 90.9 3.8 8.1 3.8 8.2-2.8 8.6l-4 .2-4-7.8c-5.9-11.5-14.3-25.3-23.4-38.3-4.4-6.3-12.2-17.6-17.3-25-8.6-12.4-17-23.3-20.8-27-.9-.8-2.7-2.8-4-4.3l-2.4-2.8 5.9.6c5.4.5 6.4 1 10 4.9zm-534 6.6c-1.3 5.2-2.6 11.4-3 13.7-.4 2.4-1.1 4.3-1.6 4.3-.6 0-.8-.3-.6-.8.3-.4.8-2.8 1.1-5.3.3-2.5 1.7-8.3 3.1-12.9 1.4-4.6 2.5-8.6 2.5-8.8 0-.3.2-.3.4-.1.3.3-.6 4.7-1.9 9.9zm546.1-3.3c14.2 17.2 34.1 45.2 47.1 66.6 6.8 11.2 14.6 26.7 13.8 27.5-2.3 2.3-4 .2-10.4-12.6-3.8-7.6-8.6-16.6-10.6-20.2-2.1-3.6-4.5-7.8-5.3-9.4-2.8-5.5-20-30.5-26.7-38.8-3.6-4.6-9.2-10.9-12.2-14.1-4.7-4.7-5.2-5.7-3.5-5.7 1.4 0 4.1 2.3 7.8 6.7zm8.3 2.1c6.9 7.7 15 18.3 15.1 19.5 0 .5.8 2.1 1.8 3.5 1.1 1.5 3.5 5.8 5.6 9.7 2 3.8 2.8 5.9 1.9 4.5-1-1.3-4.7-6.5-8.2-11.5-3.6-4.9-10.9-14.5-16.3-21.3-5.4-6.8-9.8-12.5-9.8-12.8 0-1.4 4.5 2.4 9.9 8.4zM248 557.2c-1.1 4.1-1.8 8.6-2.6 16.1-.8 8.2-.9 8.6-1.8 9.4-.5.4-.6-.6-.2-2.2.3-1.7.8-5.7 1.1-9 .8-8.5 2.6-17.5 3.5-17.5.5 0 .5 1.5 0 3.2zm243.2-.4c1.1 1.3.8 1.2-1.9-.2-1.8-.9-3.3-1.8-3.3-2 0-.9 4.1.8 5.2 2.2zm388.6-1.3c19.3 1.7 28 7.7 34.3 23.7 2 5.2 6.4 21.5 7.4 27.8.3 1.9.8 4.6 1 6 .3 1.4.7 4.1.9 6 1 7.6 2.8 21.6 3.1 23.7.3 2.1-.5 2.6-9.3 5.3-5.3 1.6-12.2 3.5-15.2 4.1-6.5 1.4-5.3 2.7-16-17.5-16-29.9-25.7-47.5-30.3-55.1-3.6-5.9-13-17.6-17.8-22.3l-3.3-3.3 19.9.6c11 .3 22.4.8 25.3 1zm171.9 1.7c-.3.7-.5.2-.5-1.2s.2-1.9.5-1.3c.2.7.2 1.9 0 2.5zm-861.1 6.3c-.8 3.3-1.5 5-1.5 3.8-.1-2.9 2.3-13.2 2.7-11.3.1.9-.4 4.2-1.2 7.5zm318.3-4.9c1.4 1.2-1.9.1-3.5-1.2-1.8-1.4-1.8-1.4.6-.3 1.4.6 2.7 1.3 2.9 1.5zm-5.6 1.4c.5.4-.3.5-1.7.3-1.5-.3-2.9-1-3.2-1.5-.7-1.1 3.6-.1 4.9 1.2zm105.8 1c3 .6 6.3 1.2 7.4 1.4 3.6.7 23.3 6.6 34.3 10.2 24.5 8.2 52.4 20.4 63.2 27.7 2.5 1.7 8.2 6.5 12.7 10.8 33.2 31.7 85.4 53.7 128.2 54.3 2 0 3 1.3 6.1 8 4.8 10.5 11.8 37.5 13.5 52.6.3 2.5.7 5.6 1 7 .6 3.5 1.6 11 2.9 23 .4 3 .9 7.1 1.1 9 .3 1.9.7 6 1 9 .3 3 1 9.1 1.6 13.5.5 4.4 1.2 9.6 1.4 11.5.2 1.9.7 5.6 1 8.2.6 4.8-.6 6.2-3 3.9-.6-.5-5-1.9-9.9-3.1-17.8-4.4-35.6-2.5-51.5 5.4-2.5 1.3-8.9 3.1-14.1 4-12.7 2.3-27.7 6-38 9.6-7.6 2.6-9.9 2.9-22 3.1-14.7.1-29.7 1.9-38.7 4.5-5.1 1.5-6.9 1.5-15.3.4-5.2-.7-10.2-1.4-11-1.6-.8-.1-2.5-.3-3.8-.3-4.5-.2-1.2-1.8 5-2.5 3.4-.4 8-1.4 10.2-2.2 2.3-.9 10.8-3.8 19.1-6.6 15.2-5.1 22.2-8.2 26.3-11.7 6.6-5.7 7.1-19.6 1.1-31.3l-1.9-3.6 4.9-3.1c5.6-3.6 15.4-7.8 20.8-8.9 4.8-.9 23.2-.8 30 .3 6.5 1 9.7.2 11-2.8 2.6-5.7-5.2-13.5-21.1-21.2-28-13.6-56.8-16.8-77.1-8.7-2.7 1.1-9.3 4.5-14.5 7.6l-9.5 5.6-2.1-8.8c-2.9-12.4-5-18.3-10.6-29.9-7.6-15.9-20.7-34.6-35.3-50.5-2.7-3-7.5-8.3-10.4-11.9-8.5-9.9-39.5-40.2-55.9-54.5l-3.4-3 7.4-7c9-8.5 15.4-13 22.8-16.1 6.3-2.6 7.6-2.7 15.1-1.3zm-84.3 7.7c4 2 7.5 3.9 7.7 4.4.6.9-23.6-10-25-11.3-1.5-1.4 8.8 2.7 17.3 6.9zm-330.9-2c-1.5 5.6-2 6.3-1.3 1.8.6-3.9 1.1-5.5 1.9-5.5.2 0-.1 1.7-.6 3.7zm203.6 5.3c.1 5.7-.1 6.7-1.2 5.8-1-.8-1.2-2.5-.7-6.2.5-4.5 1.1-6.6 1.7-6.6.1 0 .2 3.1.2 7zm659.2-3.8c-.3.8-.6.5-.6-.6-.1-1.1.2-1.7.5-1.3.3.3.4 1.2.1 1.9zm-247.2.8c1 1.1 1.6 2 1.3 2-.3 0-1.3-.9-2.3-2-1-1.1-1.6-2-1.3-2 .3 0 1.3.9 2.3 2zm240.2 5.7c-.2 1.6-.4.3-.4-2.7s.2-4.3.4-2.8c.2 1.6.2 4 0 5.5zm-861-2.5c-.3.8-.6.5-.6-.6-.1-1.1.2-1.7.5-1.3.3.3.4 1.2.1 1.9zm6.7 3.5c-.3 3.2-.8 6.7-1 7.8-1.2 5.9-2.2 23.2-2.3 37.8-.1 11.7-.1 11.8-2.3 11.5-2-.3-2.4-1.1-2.8-5.3-.5-5.5.4-19.3 2-29.5 1.1-7.2 6.1-28 6.8-28 .2 0 0 2.6-.4 5.7zm-95.7-1.5c-.3.7-.5.2-.5-1.2s.2-1.9.5-1.3c.2.7.2 1.9 0 2.5zm131.4 8.4c6.8 8.8 8.6 14.9 9.1 30.7.3 7.9.1 14-.4 14.3-.5.3-2.4.3-4.2 0-3.5-.7-4.2-1.8-15.1-25.2l-4.3-9 2.3-2.2c2.6-2.5 3.3-6.2 2.9-14.6l-.3-5.9 3 3.4c1.7 1.9 4.8 5.7 7 8.5zm583.8-7.3l2.5 3.2-3.2-2.9c-3.3-3.1-3.7-3.6-2.4-3.5.4 0 1.8 1.4 3.1 3.2zm-422.2 7.4c.4 12.1 3.7 18.3 12.8 24.1 2.2 1.4 4.6 3.2 5.5 4 3.3 3.4 13 8.8 20.5 11.5l8 2.8-10-.6c-11.8-.7-16.5-2.6-23.5-9.4-10.5-10.1-15.9-23.8-15.1-38 .2-4.9 1.6-.8 1.8 5.6zm676.6-1.2c.4 3.3.9 7.1 1.2 8.5.7 3 .8 22.5.1 26-.2 1.4-.7 4.7-1.1 7.5-1.2 9.9-3.6 24.1-5.9 33.6-.8 3.7-1.7 7.8-2 9-1.1 5.6-4.9 18.5-5.7 19.3-.4.4.1-2.5 1.2-6.5 4.5-17 9-44.4 10.5-63.9.4-4.7.6-15.6.6-24.4-.1-8.7 0-15.7.2-15.5.2.2.6 3.1.9 6.4zm-889.8.2c-.4 2.1-.9 5.4-1.1 7.3-.2 1.9-.6 5.4-.9 7.7-.4 3.1-1.4 27.7-1.5 35.5 0 1.6-2.9.7-3.4-1-.6-1.7 0-20.1.9-27.7.5-4.6 5.7-25.5 6.3-25.5.2 0 .1 1.7-.3 3.7zm22.6 1.1c4.4 13.4 22.4 50.2 35.4 72.2 8.8 14.9 9.2 15.7 9.9 20.7 1.2 9.6 5.8 30 10 44.6 8.6 30 22.4 61.9 37.6 87.1 3.9 6.5 7 11.9 6.8 12.1-.2.2-7.7-4.6-16.8-10.6-17.9-11.9-29.9-22.7-41.6-37.6l-6.5-8.2 2.5-8.8c3.2-11.2 5.8-25.6 7.2-39.8.7-7.2.7-24.4 0-28.3-1.7-9-9.6-22.9-17.6-31-5.9-5.9-20.6-16-27.7-18.9l-4.3-1.8.5-5.5c.5-7.2 1.8-41.3 1.7-46.8-.1-4.9 1.1-4.7 2.9.6zm330.6 7.4c6.3 4.7 9 7.3 8.7 8.3-.4.8-1.1 1.2-1.8.8-1.7-1-25.6-20.4-25.6-20.8 0-.9 10.5 5.7 18.7 11.7zm-134.1-2.3c.3 2.4 1.4 6.6 2.4 9.3 1.5 3.9 1.6 4.7.4 3.7-2.8-2.3-5.6-9.1-6.1-14.8-.5-5.2-.4-5.5 1.1-4 .9.8 1.9 3.5 2.2 5.8zm-119 1.6c-.6 4.1-1.2 7.3-1.4 7-.7-.6.9-14.5 1.7-14.5.3 0 .2 3.4-.3 7.5zm-82.6.6c0 2.7-.3 4.8-.8 4.5-.7-.4-.4-9.6.4-9.6.2 0 .4 2.3.4 5.1zm226.4 6.8c7 3.4 12.9 6.1 13.1 6.1.2 0 5.2 2.3 11.2 5.1 5.9 2.8 13.2 6.2 16.1 7.4 2.8 1.3 5.2 2.6 5.2 2.9 0 .3-.6.3-1.2.1-.7-.2-2.9-.6-4.9-.9-16.7-2.4-46.9-9.5-52.9-12.4-3.9-1.9-7.5-8.3-8.6-15.1l-.7-4.3 4.9 2.5c2.7 1.4 10.7 5.2 17.8 8.6zm116.1-8.3c6.7 2.7 7.4 3.4 5.2 5.2-1 .9-2.7.1-7-2.9-8.2-5.8-7.9-6.2 1.8-2.3zm294.8 12.2c13.3 18.9 32.6 53.7 30.8 55.5-.5.5-1.6.7-2.4.4-.8-.3-5.9-9.2-11.4-19.9-8.3-16.2-22.1-40-24.3-41.8-.3-.3-1.4-1.8-2.4-3.4l-1.9-2.9 3.1 2.2c1.7 1.2 5.5 5.6 8.5 9.9zm-267.1-.8c13.4 12 33.6 32.7 28.1 29-8.5-5.8-29.1-19.5-35.3-23.5-4.1-2.6-7.7-4.9-7.9-5.1-.8-.8 5.2-7.5 6.4-7.2.7.2 4.6 3.2 8.7 6.8zm-370.8.2c-.1 2.4-.5 10.1-.8 17.2-.4 7.2-.9 13.2-1.2 13.5-.3.3-.3-5.5 0-12.9.2-7.4.5-15.4.5-17.8.1-2.3.5-4.2 1-4.2.4 0 .7 1.9.5 4.2zm46.3-1c-.3.7-.5.2-.5-1.2s.2-1.9.5-1.3c.2.7.2 1.9 0 2.5zm578.9.5c1.5 2 2.3 3.3 1.6 2.9-1.3-.8-5.6-6.6-4.9-6.6.3 0 1.7 1.7 3.3 3.7zm-566.6 13c1.9 5.3 2.3 8.9 2.5 19.2.1 6.9.6 16.5 1 21.4l.7 8.7-4.1-2.2c-6.7-3.6-8.3-5.9-9.1-13.5-.6-5.4-.6-18.2 0-26.8.1-.6-.2-5.5-.6-11l-.6-10 3.9 3.8c2.7 2.6 4.7 5.8 6.3 10.4zm299.9-7.5c10.7 6.5 33.8 22.1 42.1 28.3 7.8 5.9 10.8 9 16.6 17.1 17.6 24.7 30.2 50.1 36.6 74.4 2.1 7.7 3.2 29.4 1.6 28.3-.5-.2-.8-1.2-.7-2.1.4-2.5-.9-9.2-4.3-22.7-3.6-14.5-6.7-24-10.7-32.9-1.7-3.6-3.1-6.9-3.1-7.1 0-1.8-7.5-12-12.1-16.5-11.8-11.5-23.7-22.7-28.5-26.7-2.7-2.3-7.2-6.3-10-9-2.7-2.6-7.7-7.1-11-10-3.2-2.8-7.2-6.4-8.9-7.8-1.6-1.4-5.6-4.7-8.7-7.2-5.5-4.4-6.7-6.1-5.1-7.6 1.1-1.1 2.4-.8 6.2 1.5zm497.1 18.1c-.7 5.3-1.6 9.9-2 10.2-.4.2-.4-1.7.1-4.3.9-5.3 1.7-14.3 2-21.7l.3-5 .4 5.5c.2 3-.2 9.9-.8 15.3zM458.5 606c7.5.9 15.5 1.4 37 2.5 14.3.7 21.4 1.5 31.4 3.6 5.2 1 9.5 1.9 9.7 1.9.1 0 .4 2.1.6 4.6l.3 4.6-7-.8c-6-.6-13.2-.6-34-.1-6.7.2-14.3-1.2-20.3-3.7-11.1-4.8-28.7-13.5-27.2-13.5.9-.1 5.1.3 9.5.9zm369.6 2.7c1.3 1.6 1.2 1.7-.3.4-1-.7-1.8-1.5-1.8-1.7 0-.8.8-.3 2.1 1.3zm165.6 3c-.3 1-.5.2-.5-1.7s.2-2.7.5-1.8c.2 1 .2 2.6 0 3.5zm-567.2 1.1s4.3.9 9.5 2c5.2 1.2 17.1 3.5 26.4 5.2 9.3 1.7 17.2 3.2 17.4 3.5.6.6-7.7.9-20.8.7-10.7-.1-22.6-2.3-29.7-5.3-5.8-2.4-15.3-8.1-15.3-9 0-.4 2.8.1 6.3 1.2 3.4 1 6.2 1.8 6.2 1.7zm129.4 3.4c10.7 8.9 11.4 9.6 7.1 7.1-6.2-3.6-11.4-6.2-14.2-7.3-2.2-.7-2.8-1.6-2.8-4 0-1.6.3-3 .6-3 .4 0 4.5 3.2 9.3 7.2zm455.6-6c-.2.7-.6 5.8-.9 11.3-.4 5.5-.8 11.3-1.1 13-.2 1.6-.7 4.8-1 7-3.1 24.3-11 53.7-18.1 67.6-2.9 5.7-4.3 6.1-2 .5 2.2-5.3 8-25.3 11-38.1 3.2-13.2 3.2-13.3 5.6-26.5 2.7-14.9 2.9-15.6 4.1-25 1.2-9.2 1.6-11 2.3-11 .3 0 .4.6.1 1.2zm-17.5 5.9c0 .5-.4.9-.8.9-.5 0-.9-.7-.9-1.5s.4-1.2.9-.9c.4.3.8.9.8 1.5zm-438.1 6c13.3 7.2 28.8 19.2 41 31.8 25.1 25.9 43.6 55.9 48 77.9 1.7 8.4 3.2 26.6 2.3 29-.4 1.1-6.1 4.7-6.3 4 0-.2-.2-3.1-.4-6.5-1.5-27.7-5.2-43.7-14.6-62.4-8.7-17.5-21.8-32.1-37.8-42.1-4.6-2.9-12.1-8.7-16.7-12.9-5.6-5.1-11-8.9-16.1-11.4-4.3-2.1-7.9-3.9-7.9-3.9-.1-.1-.4-1.8-.8-3.9-.5-2.5-.3-3.7.5-3.7.6 0 4.6 1.9 8.8 4.1zm436.4 4c-.4.4-.6-1.3-.3-3.9l.5-4.7.3 3.9c.2 2.1 0 4.2-.5 4.7zm-717.1 11.2c.2 4.8 0 8.7-.4 8.7s-2.8-2.5-5.5-5.6c-4.7-5.5-4.8-5.6-4.9-12.7 0-4 .1-7.6.4-8 .2-.4 2.6 1.4 5.3 4l4.9 4.8.2 8.8zm341.7 6.2c3.7 4.9 7.1 9.7 7.5 10.5 1.3 2.5-7.5-7.4-13.6-15.2-3.2-4-7.4-9.1-9.4-11.3-7.7-8.4-7.6-8.7.5-1 4.6 4.4 11.4 12 15 17zm-516-16c-.1 4.2-.5 7.8-.9 8-.4.2-.6-.8-.4-2.3.1-1.5.2-5.1.3-8 .1-2.8.3-5.2.7-5.2.3 0 .4 3.4.3 7.5zm399.1-1c12.7 2.1 23 4.2 32.1 6.6l7.5 2 2.6 9.2c1.4 5.1 2.5 9.3 2.5 9.3-.1.1-4.5-2.3-9.7-5.3-5.2-3-17-9.2-26.2-13.9-9.3-4.6-16.8-8.6-16.8-8.8 0-.3.8-.3 1.8-.2.9.2 3.7.7 6.2 1.1zm33.4 1.8c2.7.6 5.2 1.8 5.4 2.6.5 1.6.5 1.6-15.3-2.4l-10-2.5 7.5.5c4.2.3 9.7 1.1 12.4 1.8zm459.2.5c-.2.4-.7 3.4-1.1 6.7-1 9.7-1.5 12.5-4 23-5.2 22-16.5 50.8-28.4 72.6-7.3 13.5-14.3 24.8-15.2 24.9-.3 0-1.9-3.3-3.4-7.3-1.6-3.9-5.2-12.7-8.1-19.4l-5.2-12.2 3.5-1.2c9.1-3 27.7-22.2 41-42.6 8.1-12.2 13.8-24.3 17-35.8 1.5-5.2 3.1-9.5 3.6-9.5.4 0 .6.3.3.8zm-751.1 7c.4 3.2.9 6.6 1.2 7.7.8 3.2-1.1.7-5-6.7l-3.6-6.6h3.4c3.4 0 3.4 0 4 5.6zm312-4.8c.3.6-.1.7-.9.4-1.8-.7-2.1-1.4-.7-1.4.6 0 1.3.4 1.6 1zm5.8 6.3c3.1 1.6 5.6 3.2 5.4 3.3-.2.2-3.2-.7-6.7-2.1-3.5-1.4-7-2.5-7.7-2.5-.7 0-1.3-.7-1.3-1.6 0-1.9 2.4-1.3 10.3 2.9zM176.6 640c.1 2.5.5 8.8.7 14l.6 9.5-2.4-9c-3.3-12.4-3.6-19.9-.9-19.3 1.2.2 1.8 1.6 2 4.8zm14.9-4.2c.6.4 1 2.5 1.1 4.7.1 2.2.4 6.5.8 9.5 1.3 10.8 1.5 13.6 2 23.5l.5 10-1.5-5c-2.2-7.9-5.3-23.4-5.9-30.5-.4-3.6-.8-8-1-9.8-.3-2.5 0-3.2 1.3-3.2.9 0 2.2.4 2.7.8zm858.2 2.4c-.3.7-.5.2-.5-1.2s.2-1.9.5-1.3c.2.7.2 1.9 0 2.5zM100.4 648c0 6-.2 11.1-.5 11.4-.2.2-.5-4.7-.7-11-.2-6.3.1-11.4.5-11.4s.8 4.9.7 11zm65.7-1.3c0 5.4.2 12.1.3 14.9l.2 5.2-4-2.1c-8-4.2-20.8-3-31.3 2.8-4 2.2-4.3 2.2-4.3.5 0-3.1 3.9-11.2 7.7-15.8 5.3-6.5 11.7-10 25.3-14 6.2-1.8 6-2 6.1 8.5zm38.4-6.1c14.3 7.5 23.4 15.3 30.6 26.2 8.4 12.8 9.4 16.3 9.4 34.2-.1 13.6-.3 16.3-2.4 22.5-3.3 9.9-11.9 26.7-13.4 26.3-2.3-.8-16.2-30.3-21-44.7-7.1-21.2-9.8-34.8-10.4-52.4-.6-16.7-.9-16.3 7.2-12.1zm78.2 6.6c-.2 1.8-.4.4-.4-3.2s.2-5 .4-3.3c.2 1.8.2 4.8 0 6.5zm275.4-6.1c15.8 6.2 19.2 8.4 30.9 20.9 16.1 17.1 22.3 25.2 27.4 35.6 4.7 9.5 12.9 33 12.2 34.8-.2.6-.8 0-1.4-1.4-3.3-8.1-16-24.9-27.3-36-10.1-9.9-25.3-22.2-36.5-29.4-6.6-4.3-6.4-3.9-12-22.4-1.6-5-1.2-5.2 6.7-2.1zm-281.6 14.3c.8 5.8 1 7.1 2.6 14.3.5 2.9 1 5.5 1 5.8 0 .2 2.2 6.9 5 14.7 2.7 7.9 4.9 14.6 4.9 14.9 0 1.1-4.1 1.8-6 1.1-4-1.5-9.7-10.9-12-20-4.2-16.6-5.1-21.8-5.5-31.9-.2-5.6-.6-11.2-1-12.5-.6-1.7.7-.9 4.8 3.1 4.9 4.8 5.6 6.1 6.2 10.5zm12.7-14.6c.3.6 6.5 5.9 24.1 20.4 3.8 3.1 4.9 4.8 6.6 10.5 3.6 11.9 4.3 16.9 2.7 20.8-1.6 4.2-13.9-2.8-24.7-14.2-4.9-5.1-5.8-6.8-7.9-14.1-1.4-5.1-2.3-11.3-2.4-16.2-.1-7 .5-9.7 1.6-7.2zM871 654.9c0 .7-1.3-1.3-3-4.4-1.6-3.1-3-6-3-6.4 0-1.2 6 9.4 6 10.8zm-587.3 1.3c-.3.8-.6.5-.6-.6-.1-1.1.2-1.7.5-1.3.3.3.4 1.2.1 1.9zm-169.5 5.5c.2 2.3 0 3.9-.4 3.7-.5-.3-.7-2.9-.7-5.7.1-5.6.6-4.8 1.1 2zm813.5-3c1.6 7.9.8 26.3-1.6 34.8-1.2 4.3-2.7 8.5-3.3 9.3-.9 1-3.4-3.3-11-19-5.5-11.2-10-20.7-10.1-21.2-.1-.4 3.9-1.9 8.8-3.2 5-1.2 10.1-2.7 11.5-3.3 4.1-1.6 4.9-1.3 5.7 2.6zm115.6-2.2c-.3.9-.8 1.4-1 1.1-.3-.3-.2-.9.2-1.5.9-1.6 1.5-1.3.8.4zm-435.9 16.6c10.3 11 18.4 25.4 24.2 42.3 2.8 8.1 3.2 12.5.5 5.1-1-2.8-3.5-8.4-5.6-12.5-3.9-7.8-20.6-33.7-24.6-38-1.2-1.4-4.1-4.5-6.3-6.9l-4.1-4.5 5.2 4.2c2.8 2.3 7.6 6.9 10.7 10.3zm34.1 2.6c2.6 5.2 4.4 9.7 4.1 10-.3.4-.6.2-.6-.3s-3.1-6.6-7-13.4c-4.5-8.1-5.9-11.3-4-9.1 1.6 1.8 5 7.6 7.5 12.8zm-540.3-7.2c.2 4.1 0 7.5-.4 7.5-.5 0-.8-2.1-.9-4.8 0-2.6-.2-5.9-.3-7.5-.1-1.5.2-2.7.5-2.7.4 0 .9 3.4 1.1 7.5zm158.9-3.1c0 .6.4 3.2.8 5.8.4 2.7.7 4.8.5 4.8-.1 0-1.7-2.4-3.5-5.3-1.7-2.8-3.8-6.2-4.6-7.4l-1.5-2.2 4.1 1.6c2.3.9 4.1 2.1 4.2 2.7zm378.5 13.8c3.8 7.6 8.6 19.9 8 20.5-.2.3-.7-.6-1.1-1.9-1-3-10.4-21.9-14.4-28.6-1.7-2.9-3.1-5.6-3.1-6 0-1.5 7.3 9.6 10.6 16zm-481.3-14.1c2.1.5 5.1 2.2 6.7 3.7 2.8 2.6 2.9 3 3.5 16.2.9 20.5 1.8 29.8 3.5 36.1.7 2.4 1.2 4.4 1.1 4.4-.1 0 1.2 3.7 2.7 8.2l2.9 8.2-5.1 4.9c-9.1 8.7-25.2 20-26.7 18.5-.9-.9-7.7-19.4-10.3-28.2l-1.6-5.3 2.5.4c1.7.4 2.5.1 2.5-.8s-1.1-1.4-2.9-1.4c-3.4 0-3 1-9-21-6.3-23-6.3-23.9-2.9-30.8 2.5-5.2 3.5-6.2 8.6-8.7 10.3-5.1 17.5-6.4 24.5-4.4zm715.5 6.5c8.8 21.7 20.9 62.6 22.8 76.7.1 1.5.5 3.1.8 3.5.2.4.7 2.7 1.1 5.2.4 2.5.9 4.8 1.1 5.2.3.5.1.8-.4.8s-2.8-8-5.2-17.8c-8.9-37.6-16.8-62.2-23.2-72.4-1.9-2.9-3.7-5.8-4-6.3-.4-.6.4-1 2-.9 2.3.1 3 .9 5 6zm9-2.6c1.2 5 .7 5.1-1.3.4-1.8-4.3-1.8-4.4-.6-4.4.5 0 1.3 1.8 1.9 4zm-306.4 8.2c19.3 14.1 39 35.5 48.1 52.1 6.5 11.8 12 29.1 11.3 35.3-.4 3.6-2.2 4.5-15.3 7.8-10.9 2.8-13.5 3.1-13.5 1.6 0-.9-2.8-7.1-17-37.5-10.4-22.3-22.1-49.4-27.1-62.9l-2.9-7.8 3.2 2c1.8 1.2 7.8 5.4 13.2 9.4zm302-9.6c.3.8.2 1.2-.4.9-.6-.3-1-1-1-1.6 0-1.4.7-1.1 1.4.7zm-762.3 2.1c0 1.6.2 3.5.3 4.3 1.1 5.5 1.6 12.3 1 11.7-.9-.8-1-1.3-2.2-11.5-.4-3.9-.5-7.2 0-7.2.4 0 .8 1.2.9 2.7zM190 671c.5 1.9.6 2.9.1 2.4-1-1-2.6-7.2-1.7-6.3.4.4 1.1 2.1 1.6 3.9zm160.7 17.6l7.2 4.9 2.1 8.9c4.8 20.1 2.6 29.8-6.1 28.1-4.3-.9-12.4-5.4-19.3-11-6-4.8-7.4-6.4-9.8-12.3-1.5-3.7-3.3-7.5-3.8-8.5-.8-1.4-.6-1.9 1.5-2.9 1.6-.7 2.7-2.2 3.1-4.3.6-3.5-.9-13.3-3.1-19.6-.8-2.3-1.5-4.3-1.5-4.5 0-.2 5.1 3.4 11.3 7.9 6.1 4.6 14.5 10.6 18.4 13.3zm293.8-17.3c9.2 12.8 17.5 25.2 17.5 26 0 .5.8 2.1 1.9 3.5 3.2 4.6 9.8 20.8 11.6 28.7 1 4.5.2 3.1-5-9-6.6-15.3-13.4-27.7-23.6-43.3-6.6-10-8.3-14.2-2.4-5.9zm-15.1 15.9c4.3 8.2 4.2 10.1-.1 3.1-1.6-2.6-6-8.9-9.7-13.8l-6.8-9 6.5 6.3c4 4 7.8 9 10.1 13.4zm-449 .3c1.6 8 2.7 14.8 2.4 15-.3.3-1.9-6.2-3.5-14.5-1.7-8.2-2.7-15-2.4-15 .3 0 1.9 6.5 3.5 14.5zm7.7-9.3c3.3 19.3 10.8 43.4 19.4 62.3 7 15.3 11.2 25.5 10.6 25.5-.3 0-3.2-4.6-6.3-10.3-6.5-11.7-17.1-37.7-19.3-47.3-.2-1-1.3-5.4-2.4-9.7-1.1-4.3-2.2-10.8-2.6-14.5-.3-3.7-.8-7.8-1.1-9.2-.3-1.4-.2-2.2.2-1.8.4.4 1 2.7 1.5 5zm4.2 5.7c-.6.8-1.1-.5-1.7-4.9l-.5-4.5 1.3 4.5c.7 2.5 1.1 4.7.9 4.9zm-90-.2c.2 2.9.1 5.3-.3 5.3s-.7-2.8-.8-6.3c-.1-7.2.4-6.6 1.1 1zm169.4 30.6c4.8 14 19.1 45.3 25 54.6 1.9 3.1 5.9 8.6 8.8 12.2 2.9 3.6 8.4 11.7 12.1 18 3.7 6.3 8.5 14 10.7 17.3l3.9 5.8-9.3 9.4c-5.2 5.2-9.7 9.4-10.2 9.4-.4 0-4.5-1.8-9-4-10.3-5-33.5-23-47.7-37.1-9.6-9.6-22-25.8-22-28.9 0-.7 3.5 2.3 7.8 6.6 9 9.2 9.9 10 25.7 22.3 13.4 10.5 24.6 18.1 34.8 23.5 3.8 2 7 3.6 7.2 3.6.2 0-3.7-8.4-8.7-18.8-23.9-49.6-36.9-83.8-48.5-127.7-.3-1.1 3 3.1 7.2 9.3 6.6 9.6 8.4 13.2 12.2 24.5zm27.9-30.7c4.2 3.9 14.5 11.5 17.2 12.6.4.1 2.5 4.3 4.6 9.3 7.1 16.5 10.5 27.7 11.2 37l.5 6-4.2-4.5c-15.9-16.9-31.2-43.1-33.4-57.1-.3-2.4-.9-5.2-1.1-6.2-.8-2.5-.2-2.2 5.2 2.9zm-105.3 8.1c1.4 5.4 1.3 7.1-.2 3-.9-2.4-2.3-10.9-1.6-9.2.3.5 1.1 3.4 1.8 6.2zm721.6 6c2.8 6.1 5.1 12 5.1 13.1 0 1.1.9 3.1 2 4.5 2.1 2.7 6.2 11.8 14.1 31.6l5 12.4-2.7 3.9-2.8 4-4.6-16.4c-4.9-17.2-13.4-42.2-19.4-57.2-4.7-11.8-3.1-9.9 3.3 4.1zm-716.2-9.5c-.3.8-.6.5-.6-.6-.1-1.1.2-1.7.5-1.3.3.3.4 1.2.1 1.9zm455.2 6.7c10.3 18 24 49.6 22.2 51.4-.5.4-3.9 2.1-7.7 3.6l-6.9 2.8-1.2-4.5c-.6-2.4-1.4-6.1-1.7-8.1-.3-2-.8-4.7-1.1-6.1-1.9-9.4-2.7-14.4-3.2-21-.5-6.4-3.4-18.9-5.8-25.3-1.7-4.2.7-1 5.4 7.2zm-536 3.9c.7 4 1.1 7.5.9 7.8-.3.2-1-2.9-1.7-6.8-.7-4-1.5-8.2-1.7-9.3-.4-1.5-.3-1.6.4-.5.5.8 1.5 4.8 2.1 8.8zm-15.7-6.3c.3 1.4.1 2.5-.3 2.5-.5 0-.9-1.1-.9-2.5s.2-2.5.4-2.5.6 1.1.8 2.5zm97.8-1.1c0 1.8 5.3 17.8 9 27.2 3.3 8.1 11.3 24.5 14.9 30.4 2.2 3.8 2.7 6 1.1 6-2.5 0-13.9-23-21.3-43-2.4-6.6-5.7-22-4.6-22 .5 0 .9.6.9 1.4zM174 704c1.5 5.2 4.4 14 6.4 19.4l3.5 9.9-2.1 3c-1.6 2.2-2.3 2.6-2.9 1.5-1.8-3.1-6.7-21.8-7.3-27.3-1-10.2-1.5-20.1-1-18 .3 1.1 1.8 6.3 3.4 11.5zm-59.3-8.9c.6 4 5.2 23.5 7.2 30.4 1.6 5.4 1.7 7.2.8 8-.7.5-2.7 2.7-4.4 4.8-1.8 2.1-3.3 3.6-3.3 3.4 0-.2-1.1-4.9-2.5-10.3-1.3-5.4-2.7-11.3-3-12.9-.3-1.7-1.2-6.8-2-11.5l-1.5-8.5 3.7-3.1c4.1-3.4 4.5-3.5 5-.3zm-16.5 1.5c.2 1.9.1 3.7-.3 4-.4.2-.9-1.4-1.1-3.6-.4-5 .8-5.4 1.4-.4zm964.5-.4c-.3.8-.6.5-.6-.6-.1-1.1.2-1.7.5-1.3.3.3.4 1.2.1 1.9zm-682.8 11.3l11.2 7-.4 4.4c-.3 2.3-1.1 5-2 5.8-1.3 1.3-1.8 1.3-4.4 0-6.1-3.2-21.4-20.7-22.7-26.1l-.7-2.9 3.9 2.4c2.2 1.3 8.9 5.5 15.1 9.4zm255.1-8c0 .5-.5.3-1-.5s-1-2-1-2.5c0-.6.5-.3 1 .5s1 1.9 1 2.5zm-380.3.7c-.3.7-.5.2-.5-1.2s.2-1.9.5-1.3c.2.7.2 1.9 0 2.5zm-149.8 5.7c.1 3.5-.5 2.2-1.2-2.4-.5-2.8-.4-3.4.3-2 .5 1.1.9 3.1.9 4.4zm954.5.5c-.9 2.6-1.8 4.5-2 4.3-.2-.2.3-2.5 1.2-5.1.9-2.6 1.8-4.5 2-4.3.2.2-.3 2.5-1.2 5.1zm-798 13.6c2.7 10.3 21.1 55.7 31.4 77.2.2.5 0 .8-.3.8-.7 0-17.6-34.5-19.8-40.5-9-24.4-17.8-51.9-17.6-54.9.1-1 5.3 13.4 6.3 17.4zM99.2 704.7c0 .4.4 1.7.8 2.9.5 1.1 1.1 3.8 1.4 5.9.6 3.8 4.2 17.6 7.3 28.3 2.3 8 .1 8.6-2.5.7-2.3-6.9-8.2-34.1-8.2-37.7 0-1.9 1.1-2.1 1.2-.1zm-4.1 2.5c0 .7.2 2 .4 2.8.2.8 1.1 5.1 1.9 9.5.9 4.4 3.2 13.2 5 19.5 3.9 13.3 4.7 11.6-8.1 18.6-10.8 5.9-22.3 10-36.3 13-13 2.8-15.5 4.1-17.8 9.2-2.2 5.2-2.1 29.2.2 34.7.9 2.1 1.4 4 1.2 4.2-1.1 1.1-12.8-11.4-15-16-2.6-5.4-6.1-19.6-6.9-27.9-1.4-15.1 5.7-29.5 20.3-41 6.4-5 9.9-6.6 20.6-9.4 6.8-1.7 10.6-3.3 13.4-5.5 4-3.3 18.9-12.7 20.3-12.8.4-.1.7.5.8 1.1zm90.4 5.1c.4 1.7.9 4.1 1.2 5.2.3 1.1.2 1.7-.1 1.4-1.1-1-3.5-11-2.6-10.4.5.3 1.1 2 1.5 3.8zM292 709c0 .6 2 5.4 4.5 10.8 5.2 11 5.2 11-4.4-1.3-6.6-8.5-6.9-9-4.8-9.7 3.4-.9 4.7-.9 4.7.2zm81.8 10.2c3.1 3.3 7.1 6.4 9.7 7.5l4.4 1.8 1.5 8.5c3.3 18.4 3.7 29.5 1.3 35.2-2.2 5.1-5.2 5.7-11.5 2.3-5.7-3.1-18.2-15.1-18.2-17.5 0-.8-1.7-6.6-3.9-12.8l-3.8-11.2h2.4c6.8 0 9.3-4.6 8.9-16.5l-.2-8.7 2 2.8c1.2 1.6 4.5 5.4 7.4 8.6zm509.3 18.2c3 12.2 4.9 21.2 7 32.6.6 3.6 1.3 7.4 1.5 8.5.6 3.4 2.3 18.7 3 26.5.3 4.1.8 8.3 1 9.2.1 1-.1 2-.5 2.3-1 .5-7.1-2.3-7.2-3.3 0-.4-.2-1.6-.5-2.7-.2-1.1-.6-4.2-.9-7-.3-2.7-.7-5.7-.9-6.5-.3-.8-.8-4.5-1.1-8.2-.3-3.7-.7-7.5-.9-8.5-.2-1-.7-5-1-8.8-.4-3.9-.8-8.1-1-9.5-.3-1.4-.7-5.2-1.1-8.5-.3-3.3-.8-7.4-1-9-1.4-10.2-2.8-20.1-4.1-27.4-.8-4.6-1.4-8.6-1.3-9 .2-1.4 6.3 18.4 9 29.3zm-777.4-27.2c.2 2.6 2.5 13.6 4.9 23 2.5 10.2 3 13.4 1.5 10.8-.8-1.4-4.6-17.3-5.6-23.5-.6-3.7-1.4-7.5-2.1-9.8-.3-.9-.1-1.7.4-1.7s.9.6.9 1.2zm526.9 20.7c3.1 12.1 3 16.3-.1 5.1-.2-.8-1.3-4.7-2.4-8.5-1-3.9-2.6-9-3.5-11.4-2.3-6.4-1.9-6.4 1-.1 1.4 3 3.7 9.7 5 14.9zm-510.9-16.7c-.3.8-.6.5-.6-.6-.1-1.1.2-1.7.5-1.3.3.3.4 1.2.1 1.9zm60 1c-.3.8-.6.5-.6-.6-.1-1.1.2-1.7.5-1.3.3.3.4 1.2.1 1.9zM300 715c.6 1.1.8 2 .6 2-.3 0-1-.9-1.6-2-.6-1.1-.8-2-.6-2 .3 0 1 .9 1.6 2zm-18.9 8.3c1.5 4 3.6 9.7 4.8 12.7 1.3 3 1.8 5 1.3 4.5-1.6-1.7-11-26.7-9.5-25.1.4.4 1.9 3.9 3.4 7.9zm123.4-.8c12.8 7.5 13.2 7.9 14 12.8 1 6.1 1.4 7.7 1.9 9.5 1 3.3 1.8 12.8 1.8 19-.1 7-1.9 10.4-5.1 9.5-5.7-1.5-22.9-21.4-23.7-27.5-.3-1.8-1.1-6.5-2-10.4-1.3-6.3-1.3-7.4.1-10 .8-1.6 1.5-4.4 1.5-6.2 0-1.8.3-3.1.8-2.9.4.2 5.2 3 10.7 6.2zm-206.1 20.2c1.8 4.6 3.1 8.3 2.9 8.3-1 0-8.2-17.3-9.7-23.1-2.5-10.1-1.8-11.4 1-1.9 1.4 4.7 4 12.2 5.8 16.7zm136.7-19.5c2.1 1.5 6.3 4.3 9.4 6.1 5.1 2.9 6 3.8 8.2 9.2 4.6 11.3 9 31.5 6.8 31.5-.9 0-12.9-9.3-18.4-14.2-5.2-4.7-5.4-5.1-5.7-10.7-.3-6.2-2.5-16-5-22.4-1.6-4.3-1.3-4.3 4.7.5zm-20.9 6.8c4.7 6.7 6.8 9.2 14.5 17.1 3.6 3.7 4.1 4.8 3 5.7-1.1.9-2.7-.7-8.3-8.1-6.1-8-11.9-16.5-14.9-21.7-1.6-2.9 1.1.4 5.7 7zm-97.9 15.9c3.7 6.9 6.5 12.6 6.4 12.8-.2.1-3.2-4.6-6.6-10.6C209.8 737 205 726.7 205 724c0-.8 1.1 1 2.3 4 1.3 3 5.3 11.1 9 17.9zm77.8-10.4c4.1 4.9 7.6 9.2 7.9 9.5.3.3 4.1 4.5 8.5 9.5 4.4 4.9 9 10.1 10.2 11.4 1.2 1.4 2.5 3.9 2.9 5.6.4 1.6 1.7 5 2.9 7.5 1.9 3.7 4.9 12.4 9 25.9l.7 2.4-2.8-2.1c-12.1-8.9-23.8-24.2-32.8-42.7-6.3-12.8-13.9-30.2-15.7-36-1.1-3.5-1.2-3.7 9.2 9zm-54.2 6.5c-1 5.2-1.9 9.8-1.9 10.2 0 .5-.6.8-1.4.8-3 0-2.6-4.5 1.2-12.7 2-4.5 3.8-8.1 3.9-8 .1.1-.7 4.5-1.8 9.7zm195.8-1.9c8.1 4.5 15.2 8.5 15.7 8.9 1.3 1.2-4.5 11-7.4 12.5-5.1 2.6-12.4-3.3-18.8-15.3-2.6-4.9-5.7-14.2-4.7-14.2.2 0 7 3.6 15.2 8.1zm-307.4 5.4c1.9 5.5 4.2 11.7 5.1 13.8l1.6 3.8-2.7-.8c-3.4-.8-5-.8-8.3.1-2.4.6-2.6.3-4.9-7.6-1.4-4.6-2.6-8.8-2.8-9.3-.3-.9 7.6-10.9 8.2-10.3.1.2 1.8 4.8 3.8 10.3zm4.5-8c-.3.3-.9-.2-1.2-1.2-.6-1.4-.5-1.5.5-.6.7.7 1 1.5.7 1.8zm616-.1c4.1.9 10.7 2.7 14.8 4.1 9.9 3.3 31 14.1 23.4 11.9-3-.8-14.9-.9-21.1 0-10.1 1.4-22.5 6.5-33.1 13.8-6.5 4.4-7.9 4.2-12.2-1.5-4-5.4-5.8-10.8-6.3-19.9l-.6-8.6 4.9-.7c2.7-.4 5.4-.8 5.9-.9 2.5-.8 17.7.4 24.3 1.8zm-560.6 5.8c1.4 3.5 4 10.6 5.8 15.8 3 9.2 3.9 11.5 7.5 19.2 1.7 3.6 1.5 6.8-.3 6.8-1.1 0-16.5-30.7-18.8-37.5-1.6-4.8-1.6-5.2.1-7.8.9-1.5 2.1-2.7 2.5-2.7.4 0 1.8 2.8 3.2 6.2zm714.9 7.8c1.2 5.2 1.4 6.1 2.8 15.5 1.2 8.1 2.6 29.2 1.8 28.5-.2-.3-.8-3.7-1.1-7.5-1-9.6-1.4-12.6-3.1-22.4-.8-4.8-1.7-10.4-2.1-12.6-.3-2.2-1-5.8-1.5-8-.4-2.2-.8-4.7-.8-5.5 0-1.7 2.4 5.4 4 12zm-766.8-3.8c1.5 4.6 3.9 11.1 5.2 14.5 1.7 4.5 2 6.3 1.1 6.3-1 0-8.6-21.1-8.8-24.5 0-.6-.4-1.8-.9-2.8-.5-.9-.6-1.7-.1-1.7.4 0 2 3.7 3.5 8.2zm573.1-1.2c.3 3.5 1.2 8.7 2 11.5 1.6 5.2 7.1 14.5 8.7 14.5 1.6 0 9.7 9 11.5 12.8 2.3 4.8 3 12.4 1.5 16.1-1.6 3.8-6.3 6.1-25.7 12.7-26.2 9-31.2 9.9-39.9 7.6-2.2-.6-5.5-1.3-7.3-1.6-1.9-.2-3.5-.6-3.7-.8-.2-.2.5-3.4 1.5-7.2 3.2-11.4 5.1-24.5 5.5-37 .4-13.4-.1-12.5 9.5-16.2 3-1.2 12.2-6 20.5-10.7 8.2-4.8 15-8.5 15.1-8.4.2.1.5 3.1.8 6.7zm-419.6-.5c-.3.3-.9-.2-1.2-1.2-.6-1.4-.5-1.5.5-.6.7.7 1 1.5.7 1.8zM182.1 753c2.2 6 10.4 22.5 14.6 29.8l2.7 4.5-6.2 5.9c-8.2 7.7-24.1 20.8-25.1 20.8-1.3 0-21.1-42.1-21.1-44.8 0-.4 2.5-2.2 5.6-4.1 6.2-3.7 16.2-11.2 22-16.5 4.3-4 4.3-4 7.5 4.4zm143.5 1.7c-.9.9-3.4-1.3-6.5-5.5l-3.4-4.7 5.1 4.9c2.9 2.8 5 5.1 4.8 5.3zM970 748c-.6 1.1-1.3 2-1.6 2-.2 0 0-.9.6-2s1.3-2 1.6-2c.2 0 0 .9-.6 2zm39.4 5.1c-8.7 17.5-23.4 40.3-33.8 52.7-10.3 12.4-17.8 20.6-28.9 31.5-12.7 12.3-13.1 12.7-15 11-1.9-1.8-1.8-1.9 5.4-8.3 7.7-6.8 22.5-21.4 29.6-29.2 13.2-14.5 35.7-45.7 42.3-58.9 1.7-3.2 3.3-5.9 3.5-5.9.3 0-1.1 3.2-3.1 7.1zm-893.6-.5c1.7 6.3 1 6.6-1 .4-.9-2.8-1.3-5-.9-5s1.2 2.1 1.9 4.6zm312.2 2.5c9.4 13 19.2 12.5 24.7-1.2l1.5-3.8 9.6 5.1c20.4 10.7 27.2 15 30.7 19.2 8.6 10.5 26.2 15 58.5 15 11.1 0 30.3-1 34.6-1.8 1.2-.2 4.5-.7 7.5-1.1 6.9-.8 23.8-4.2 30.7-6.2 3-.8 5.6-1.2 5.9-.9.3.2 0 2.7-.6 5.3-.6 2.6-1.3 6-1.5 7.4-.8 4.9-5.9 24.4-6.6 25.2-.9 1-3 1.4-14.5 2.2-5.5.4-14.3 1.3-19.5 1.9-9.5 1.3-31.9 1.4-39.5.2-2.2-.4-7-1.4-10.7-2.2-6.4-1.5-6.8-1.8-6.8-4.5 0-6.6-3.3-9.3-16-13.4-3-.9-7.7-3-10.5-4.5-4.4-2.5-7.3-3.5-16-5.7-1.1-.3-10.8-.6-21.5-.8-10.7-.1-22.4-.5-26-.9-3.6-.4-8.5-.9-11-1.1-20.4-2.1-31.2-3.8-44.5-7-3.8-.9-7.4-1.8-8-1.9-3.6-.8-9.5-3.2-12-4.9-1.6-1.1-3.1-2.1-3.2-2.1-.1-.1-.4-2.1-.8-4.5l-.6-4.4 6.3 5.7c17.1 15.3 26.9 12 26.3-8.7-.1-3.1.1-5.7.4-5.7.3 0 1.7 1.6 2.9 3.4 1.3 1.9 5 6.2 8.3 9.5 9.3 9.3 15.7 10.2 17.8 2.5.9-3.4.6-18.8-.5-20.5-.3-.5-.4-.9-.2-.9s2.3 2.7 4.8 6.1zm-194-2.9c0 .6.6 1.6 1.4 2.2 1.1.8 1.2 1.7.5 3.6l-1 2.5-2-3.2c-1.3-2-1.8-4-1.4-5.3.6-2 2.5-1.9 2.5.2zM895.5 777c.3 2.5.8 6.5 1.1 9 .3 2.5.7 5.8.9 7.5.2 1.6.7 7.3 1 12.5.4 5.2.8 10.6 1 11.9.3 1.5.1 2.1-.5 1.5-.5-.5-1.2-4.5-1.5-8.9-.5-8-1.2-14.8-2-19.5-.2-1.4-.7-5.2-1-8.5-.3-3.3-1-7.8-1.5-10s-1.1-5.7-1.4-7.7c-.3-2.1-1-5.7-1.6-8-.5-2.4-.9-5-.9-5.8.1-2.1 5.7 20.6 6.4 26zm-782.8-20.9c1.9 6.5 1.1 6.7-1.4.3-1.3-3.3-1.7-5.4-1-5.1.6.2 1.7 2.3 2.4 4.8zm543-2.9c-.3.8-.6.5-.6-.6-.1-1.1.2-1.7.5-1.3.3.3.4 1.2.1 1.9zM966 755c-1.1 2.2-2.3 4-2.5 4-.3 0 .4-1.8 1.5-4s2.3-4 2.5-4c.3 0-.4 1.8-1.5 4zm-857.1 6.1c1.2 3.9 2.1 7.2 1.9 7.3-.1.2-3.8 2.6-8 5.5-4.3 2.8-7.8 5.5-7.8 5.9 0 1.1-7.9 9.2-12.7 13-4.1 3.2-13 7.8-17.5 8.9-3.7.9-18.6 1.6-21.3.9-2.4-.6-2.5-.9-2.5-8.9 0-10 1.3-15 4.3-17 1.3-.8 6.9-2.4 12.5-3.6 5.6-1.1 13.5-3.2 17.7-4.6 7.6-2.5 23.3-10 27-12.9 1.1-.8 2.5-1.6 3.1-1.6.5 0 2 3.2 3.3 7.1zm232.9-1.5c3.6 3.1 8.3 6.8 10.4 8.2 2.1 1.3 3.7 2.7 3.5 2.9-.7.6-17.7-9.4-22.6-13.3-.5-.4.7-3.4 1.4-3.4.4 0 3.6 2.5 7.3 5.6zM234 763.2c0 1.6-1.9.7-3.4-1.4-2.6-3.7-1.9-5.7.9-2.3 1.3 1.6 2.4 3.3 2.5 3.7zm102.6 1.4c4.4 4.2 11.3 10.7 15.4 14.5 4.1 3.7 7.1 7.1 6.7 7.5-1.5 1.5-22.3-16.1-30.4-25.8-2-2.4-2.1-3.8-.2-3.8.4 0 4.2 3.4 8.5 7.6zm592.5 15.8c2.6 8.3 4.6 15.2 4.5 15.4-.2.2-1.5-1.2-2.9-3-4-5.3-5.7-11.5-7.2-26.8-.2-2.5-.2-3.6.1-2.6.4 1.1 2.8 8.7 5.5 17zm-795-14.7c1.5.9 3.4 3.1 4 4.7.7 1.7 3.1 6.9 5.3 11.6 2.7 5.6 4.1 9.7 3.9 12-.4 8.9-1.4 21.4-1.7 21.7-1.2 1.2-22.6-45.5-22.6-49.2 0-2.8 6.8-3.3 11.1-.8zm765.1.8c.3 1.3.1 2.2-.3 1.9-.9-.5-1.3-4.4-.5-4.4.2 0 .6 1.1.8 2.5zm-662.2.3c0 .5 1.7 2.8 3.7 5.3l3.7 4.4-4.7-4.5c-4.6-4.4-5.6-6-3.7-6 .6 0 1 .4 1 .8zm419.4 12.9c-.2 5.9-.6 10.9-.9 11.1-.3.3-.5-5.1-.5-11.9 0-7 .4-11.8.9-11.1.4.7.6 6.1.5 11.9zM222 771.5c0 .5-.5.3-1-.5s-1-2-1-2.5c0-.6.5-.3 1 .5s1 1.9 1 2.5zm138.6 6c.3 2.3-.7 1.9-6.5-2.5-7.4-5.4-7.4-5.5-.1-2.1 3.5 1.7 6.5 3.7 6.6 4.6zm539.1-5.3c-.3.8-.6.5-.6-.6-.1-1.1.2-1.7.5-1.3.3.3.4 1.2.1 1.9zm-555.9 10c2.3 2 5.9 4.9 8.2 6.4 2.2 1.5 4 3 4 3.5 0 2.2-2.5 1.7-6.9-1.6-6.1-4.4-8-2.9-2.5 2.1 3.9 3.4 3.9 3.4 1.3 3.4-5 0-6.8-3.1-13.7-24-.3-.8.8.3 2.5 2.5 1.6 2.2 4.8 5.7 7.1 7.7zm-137.9-1.7c0 .5-.8-.6-1.9-2.5-1.1-1.9-1.9-4-1.9-4.5 0-.6.8.6 1.9 2.5 1.1 1.9 1.9 3.9 1.9 4.5zm440.6-2.3c-1 9.1-3.9 21.4-8.4 36.8-.4 1.5-1.6 2.6-2.8 2.8-2.1.3-2.1.2-.7-5 1.9-7.2 4.2-20.8 4.9-29.3.7-7.9.9-8.3 3.9-9.5 3.6-1.5 3.8-1.2 3.1 4.2zm-500.6-1c.6 1.8.7 2.8.2 2.3-1-1.2-2.5-5.5-1.8-5.5.3 0 1 1.5 1.6 3.2zm224.7 3.4c10.1 6.1 15.1 8.3 23.6 10.6 7.5 1.9 11.3 2.1 40.3 2.4 26.7.2 34.2.6 45.5 2.3 7.4 1.1 13.9 2.1 14.4 2.1.6 0-.3 1.4-1.9 3l-2.9 3 3.5 3.6c4.1 4.3 14 11.5 19.2 14 4.1 2 4.1 1.8 1.5 13.9-1.2 5.6-6.6 19.5-7.6 19.5-.4 0-2-1.1-3.6-2.5-2.6-2.2-2.7-2.7-1.8-5.5.6-1.7.9-3.7.6-4.4-.3-.8 1.3-5 3.5-9.5 2.3-4.4 4.1-8.5 4.1-9s-1.4-.7-3.1-.6c-2.8.2-3.5-.3-7-6-5.7-9-12.7-12.4-28.7-13.9-3-.3-19.1-.6-35.8-.6-34.1-.1-31.4.4-48.9-8.7-18.1-9.4-22.5-12.4-22.5-15 0-3 .6-2.9 7.6 1.3zm265.7.6c-2 15.7-7.3 36.8-9.3 36.8-1.3 0-1.5 1.2 2.4-15.2 1.9-7.9 4-16.9 4.6-20.1 1.2-6 3-7.2 2.3-1.5zm16.1 11.5c-.1 13.8-1.3 22.2-3.5 24.9-.7.9-5.9.8-5.9-.1 0-.1.9-3.1 2-6.6 2-6.1 5.4-21.7 6.3-28.9 1-7.5 1.3-5.2 1.1 10.7zm259.6-8.2c.6 2.7 1.4 6.1 1.6 7.5.3 1.4 1.1 5.3 1.9 8.8.8 3.4 1.7 7.4 2 9 .3 1.5.7 3.7.9 4.9.3 1.3.6 5.4.8 9.2.1 3.8.6 6.8.9 6.5.9-.5 1.9 2.1 1.9 4.8 0 1.9-.1 1.9-2.9-.4-5.5-4.3-7.5-14.1-8.6-41.2-.3-7.7-.8-14.4-1.2-15-.4-.7-.3-.8.4-.1.6.5 1.6 3.2 2.3 6zM242 789c1.9 2.4 4.8 6 6.3 8 1.6 1.9.8 1.2-1.8-1.5-2.5-2.8-6.7-7.7-9.1-11-4.7-6.3-1.4-3.1 4.6 4.5zm-8.9-6.3c1.3 1.6 1.2 1.7-.3.4-1-.7-1.8-1.5-1.8-1.7 0-.8.8-.3 2.1 1.3zm157.4 2.2c11.8 2.6 14.7 3 38 5.7 8.8 1 6.1 1.4-7.6.9-18.9-.5-28.9-2.4-38.4-7-2.7-1.4-4.1-2.3-3-2 1.1.3 6.1 1.4 11 2.4zm-238.4 2.8c1.1 2.7 2.9 6.6 4.1 8.8 1.1 2.2 2.4 5.1 2.9 6.5l.9 2.5-1.9-2.5c-4.1-5.1-10.4-20-8.6-20 .3 0 1.5 2.1 2.6 4.7zm55.6-2.5c-.3.8-.6.5-.6-.6-.1-1.1.2-1.7.5-1.3.3.3.4 1.2.1 1.9zm740.6 1.5c-2.4 4-5.5 7.3-7.8 8.5-1.4.8-1.1.2.9-1.8 1.6-1.6 4-4.4 5.3-6.2 3.1-3.9 4-4.2 1.6-.5zM244 796.2c7 8.1 19.1 18.9 30.9 27.7 11.3 8.5 12.1 9.3 5.6 5.6-13-7.2-31.2-23.5-40.6-36-5.2-7-7.1-10.2-3.8-6.3 1.3 1.5 4.9 5.6 7.9 9zm-36.6-6c1.8 3.6 2 4.8.7 4.8-1.4 0-5.3-6.8-4.6-8 .9-1.5 2.1-.5 3.9 3.2zm159.6 1.5c0 .2-1.3-.3-3-1.2-1.6-.9-3-2-3-2.6 0-.5 1.4 0 3 1.3 1.7 1.2 3 2.3 3 2.5zm-162.7 3.2c1.7 2.9 1.7 3-.4 4.1-2.7 1.5-2.9 1.2-3.3-4.4-.3-5.1.6-5 3.7.3zm442.8-2.2c-1.2 2-1.4 1.4-.5-1.2.4-.9.9-1.4 1.1-1.1.3.2 0 1.3-.6 2.3zm-449.6 2.8c-1.9 3.6-2.9 4.2-4 2.5-.6-1 4.6-7.1 5.5-6.3.2.2-.4 1.9-1.5 3.8zm20.5 5c0 1.7-2-.1-3.8-3.4-3.3-5.8-2.6-7.2.8-1.8 1.7 2.6 3 5 3 5.2zm277.9-4.9c.3.4-.6.4-2.1 0-1.5-.3-5.5-.9-8.8-1.3-3.3-.3-6-.9-6-1.3 0-.9 15.9 1.6 16.9 2.6zm-134.1-1c1.2.8 7.3 3.4 13.5 5.8 10 3.8 19.6 8.6 17.4 8.6-5.4 0-35.7-11.8-35.7-13.9 0-2.3 1.9-2.6 4.8-.5zm25.2 3c3.8 2 7 3.8 7 4 0 .9-6.2-1.8-10.5-4.5-6.7-4.1-5.1-3.9 3.5.5zm-234 2.6c0 .3 2.5 4.8 5.7 9.9 5.3 8.7 5.5 9.3 3.7 10.6-2 1.4-7.9 3.3-10.6 3.3-1.7 0-5-3.8-4.4-4.9.4-.5 1.2-8.5 2.2-19.6.1-1.7.3-3.2.3-3.4.1-.7 3 3.2 3.1 4.1zm47-1.7c0 .8.7 1.8 1.6 2.3 2.8 1.5.8 10-3.1 13.2-2.5 2.1-3.7-.1-3.7-6.8 0-4.3.5-6.7 1.8-8.5 2-2.6 3.4-2.6 3.4-.2zm13.7 4.4c-1.2.5-2.7-1.9-2.7-4.4 0-1.6.3-1.5 1.9 1 1 1.6 1.4 3.2.8 3.4zm-20.2 1.4c-.2 2.3-.4 4.5-.4 4.9-.1.3-1.3 2.1-2.8 3.8l-2.6 3.2-1.3-2.4c-1-1.6-1.3-1.8-1.4-.7 0 .9.7 2.2 1.5 2.9 1.2 1 2 .7 4.4-1.9 2.9-3.1 3-3.1 3.3-.9.4 3 3.2 3.4 5.7.9 1.2-1.2 2.4-2.1 2.9-2.1.4 0 .8-2 .9-4.4.1-4.3 1.7-8.6 3.1-8.6.4.1 1.9 1.9 3.5 4.1 2.1 3.1 2.6 4.6 2 6.7-.4 1.5-.8 2.9-.8 3.2 0 .3-.6 1.5-1.3 2.7-1.7 3.1-5 3-5.8-.2-.3-1.4-1-2.5-1.5-2.5s-.6.8-.2 1.7c1.2 3.4 2.6 4.5 5.4 3.9 2.3-.4 2.6-.2 2.2 1.4-1.1 4 .8 7 7.2 11.8 3.5 2.7 8.9 6 11.9 7.3 4.9 2.2 5.5 2.8 6 6.1.4 2.3 1.7 4.5 3.6 6.1l3 2.6-2.6 2c-3.2 2.5-4.6 2.6-8.3.6-1.6-.8-4-1.6-5.4-1.9-1.4-.2-5.5-2.1-9-4-8.6-4.8-9.8-4.7-12.4 1.3-1.1 2.7-3 5.4-4.1 6-1.8.9-2.5.5-6-3.7-5.5-6.7-16.6-22-19.1-26.5-1.1-2-3-5.3-4.1-7.1l-1.9-3.5 3-2.5c3.2-2.7 4.9-3.3 4.9-1.7 0 .5 1 1.3 2.1 1.6 1.6.5 2.8 0 4.5-1.8 2.4-2.6 3.3-6.7 1.4-6.7-.5 0-1 .7-1 1.5 0 2.4-2.3 6.5-3.6 6.5-.7 0-1.7-.8-2.3-1.8-.8-1.3-.3-2.3 2.2-4.4 1.8-1.6 3.8-2.8 4.5-2.8.6 0 1.2-.5 1.2-1 0-.6 1.2-2.2 2.8-3.5 3.5-3 5.1-1.8 4.7 3.8zm161-5.3c.8 1.3-.5 1.3-2.5 0-1.3-.8-1.3-1 .2-1 .9 0 2 .4 2.3 1zm290.9 2.4c-.3 1.5-.8 2.5-1.1 2.3-.2-.3-.1-1.7.3-3.1.3-1.5.8-2.5 1.1-2.3.2.3.1 1.7-.3 3.1zm-291.1 3.5c5.6 3.2 13.8 7.7 18.2 10.1 23.8 12.7 32.2 21.6 34 36 3 23.5-.6 26.3-26 20.1-14.7-3.5-20.1-4.2-24.9-3.1-3.1.7-5.8.2-14.4-2.6-10.2-3.2-21.4-7.6-25.7-10.1-2-1.1-1.9-1.2.3-3.1l2.3-2 5.3 2.4c7.9 3.6 20.1 6.4 27.9 6.4 5.1 0 7.5.5 8.8 1.6 2.1 1.9 5.4 1.1 4.5-1.1-.4-1 .6-1.7 3.7-2.5 2.3-.6 6.5-1.8 9.4-2.7l5.2-1.7-5.7-6.5c-7.9-9.1-18-18.9-28-27.3-2.7-2.3-3.2-3.4-3.7-8.8-.3-3.4-1-7.2-1.5-8.6-.5-1.3-.7-2.4-.5-2.4.3 0 5.1 2.6 10.8 5.9zm155.5-.3c1.7 2 3 4 2.7 4.2-.4.5-14.5-8.6-14.5-9.3 0-.1 1.9.1 4.3.5 3.1.6 5.1 1.8 7.5 4.6zm-140-.4c2.9 1.2 5.1 2.3 4.9 2.5-.5.5-10.7-3.4-12.7-4.8-1.7-1.3-.7-1 7.8 2.3zm-140.3 11.3c3.7 4.9 5.2 7.4 3.3 5.5-4.9-5-13.8-16.3-13.8-17.5 0-1.4 2.7 1.7 10.5 12zm26 7.9l8 8-7-5.9c-7.9-6.8-13.3-12.4-17.6-18.7-2.3-3.2-1.6-2.7 2.8 2.2 3.2 3.5 9.4 10 13.8 14.4zm267.3-16.9c3.5 1.6 5.5 3.2 6.2 5 2 5.3.7 5.7-7 2.4-3.9-1.7-5.5-3.1-7.5-6.6l-2.5-4.5 2.8.7c1.5.3 5.1 1.7 8 3zm-196.8-.8c0 .5 2.2 3.2 4.9 6.2s4.7 6.1 4.4 6.8c-.7 1.8-1.6 1.6-2.9-.5-.6-.9-2.8-4.3-4.8-7.5-2-3.1-3.2-5.7-2.6-5.7.5 0 1 .3 1 .7zm48.1 5.7c12.5 6.2 31.5 13.1 49.9 18 26.3 6.9 45 13 45 14.6 0 1.5-6 11.2-9.9 16-9.9 12.3-17.3 17.5-27.5 19.4-4.3.9-12.2 2.9-17.5 4.5-14.9 4.6-18.2 5.3-24.1 5.2-11-.2-16.7-1.2-27-4.6l-10.5-3.5 8.5.6c17 1.3 41.5 1.1 50.6-.3 10.3-1.6 20.4-4.5 28.3-7.9 6.2-2.8 6-4.8-.4-3.4-2.2.5-6.2 1.2-9 1.6-2.7.3-5.3.8-5.6 1-.3.1-4.8.6-10 1l-9.4.6 2-2.2c1.6-1.8 2-3.6 2-9.9 0-13.9-1.7-20.9-6.9-28-5.4-7.4-13.6-13.2-32.1-23-10.7-5.7-11.3-6.1-9.9-6.1.5 0 6.6 2.9 13.5 6.4zm102.4-4.9c6.9 1.2 14 4.4 17.1 7.6l2.9 3-2.9-1.1c-1.6-.6-7.4-1.3-13-1.5-5.6-.3-11.2-.7-12.6-1-4.5-1-7.4-1.5-11.5-2-2.2-.4-4.9-.8-6-.9-1.1-.2-5.4-.7-9.5-1.1-4.1-.3-8.8-.8-10.5-1-1.6-.2-5.9-.7-9.5-1.1-3.6-.4-7.3-1-8.4-1.3-2.4-1 58.8-.6 63.9.4zM134 810.4c0 1.2-.5.7-1.9-2.4-1.1-2.4-1.1-2.4.3-.6.9 1.1 1.6 2.4 1.6 3zm98.1 13.2c1.9 1.7 5.6 4.7 8.3 6.7 2.7 2 7.6 6.3 11 9.4 3.4 3.2 10.7 9.6 16.1 14.3 13.6 11.7 16.4 14.3 14 13.2-3.9-1.9-18.6-12.9-27.7-20.7-16.3-14.1-36.8-35.9-36.8-39.3 0-.7 2.6 2 5.9 6 3.2 4 7.4 8.7 9.2 10.4zM643 809.7c-1.1 1.7-1.1 1.7-.6 0 .3-1 .6-2.4.7-3 0-.9.2-.9.5 0 .3.7 0 2-.6 3zm-395.9 1c1.3 1.6 1.2 1.7-.3.4-1-.7-1.8-1.5-1.8-1.7 0-.8.8-.3 2.1 1.3zm137.6-1.1c-.3.3-1.2.4-1.9.1-.8-.3-.5-.6.6-.6 1.1-.1 1.7.2 1.3.5zm17.8 1.2c-.3.3-1.1 0-1.8-.7-.9-1-.8-1.1.6-.5 1 .3 1.5.9 1.2 1.2zm14.5.7c3.6.7 11.7 2.6 18 4.4 13.5 3.7 28.7 6.7 38.5 7.6 10.1 1 10.8 1.2 12.7 3.7 2.3 2.9 2.3 4.7.1 4.3-1-.2-5.6-.9-10.3-1.6-4.7-.6-10.7-2.1-13.5-3.4-9.7-4.4-19.7-7.5-32.7-10.1-7.2-1.4-15.4-3.7-18.2-5-2.8-1.3-4.2-2.1-3.1-1.8 1.1.4 4.9 1.2 8.5 1.9zM235.4 833c3.1 3 5.6 5.8 5.6 6.2 0 1.2-6.1-.3-11.5-2.8-4.9-2.3-15.4-9.6-16.7-11.7-.3-.5-.4-2.2-.2-3.6 1.1-6.8 1.6-9.6 2-10.3.3-.4 3.8 3.2 7.9 8 4 4.8 9.8 11.2 12.9 14.2zm153.3-22.4c-.3.3-1.2.4-1.9.1-.8-.3-.5-.6.6-.6 1.1-.1 1.7.2 1.3.5zm20.8 8.9c8.5 2.2 15.3 4.5 30.3 10.6 3.2 1.2 29.6 8.7 33.7 9.5 2.2.4 4.3 1.8 6.3 4.3 2.7 3.4 2.8 3.9 1.7 7.6-.6 2.2-2.3 5.9-3.8 8.2-2.8 4.4-7.1 6.9-24.7 14.3l-7.5 3.1 5.8-5.1c6.9-6.2 13.3-14.4 18.1-23.2 3.3-6 3.5-6.6 1.9-7.3-8.6-3.4-37.4-12.3-45.3-14-10.3-2.2-46-14.5-46-15.9 0-.2 4.4 1 9.8 2.5 5.3 1.6 14.2 4 19.7 5.4zm-12.4-7.1c6.1 1.5 12 4.2 6.4 3-4.3-1-14.2-4.2-13-4.3.6 0 3.5.6 6.6 1.3zm-260.1 4c0 1.2-.5.7-1.9-2.4-1.1-2.4-1.1-2.4.3-.6.9 1.1 1.6 2.4 1.6 3zm308.3-3.7c-.7.2-1.9.2-2.5 0-.7-.3-.2-.5 1.2-.5s1.9.2 1.3.5zM251.5 815c1 1.1 1.6 2 1.3 2-.3 0-1.3-.9-2.3-2-1-1.1-1.6-2-1.3-2 .3 0 1.3.9 2.3 2zm614 1.1c5.4 1 21.5 6.5 21.5 7.4 0 .2 1.1 5.5 2.5 11.9s2.5 11.7 2.5 11.8c0 .2-8.2.3-18.3.4-14.5 0-20.2.5-28.1 2.2-8.8 1.9-10.2 1.9-12.7.7-6.4-3.4-10.2-12-9.8-22.4.2-5.7.3-5.9 3.8-7.6 6.2-3 11.4-4.6 17.1-5.2 3-.3 5.6-.6 5.8-.8.5-.4 9.9.5 15.7 1.6zm-442 3c3.8 1.5 6.6 2.8 6 2.8-2.3.1-17.5-5.4-17.5-6.3 0-.7 4 .6 11.5 3.5zm41-2.7c5.6.3 12 2.1 15 4.3 1.8 1.3 1.5 1.4-3 .9-9.7-1.2-12.2-1.6-30.5-5.2-5.2-1.1-3-1.4 5.1-.9 4.6.4 10.7.8 13.4.9zm27.1 1.7c2.5.7 4.9 2 5.5 3 .9 1.8.5 1.9-4.6 1.9-4.5 0-6.2-.5-9.7-3l-4.1-3h4.2c2.3 0 6.2.5 8.7 1.1zm-352.1 3c.9 1.7 1.5 3.3 1.3 3.5-.3.2-1.2-1.2-2.1-3.1-2.1-4.3-1.3-4.7.8-.4zm771.9 4.1c.5 2.2.3 2.6-.9 2.2-1.1-.4-1.5-2-1.4-5.3.1-4.7.4-4.3 2.3 3.1zM104 822.8c0 5.3-1.4 6.4-5.8 4.5-2.1-.9-5.7-1.3-8.9-1.1-4.7.3-5.1.1-3.6-1.1 3.6-2.7 11.9-6.1 15.1-6.1 3 0 3.2.2 3.2 3.8zm29.3 4.5c4.6.1 4.9.3 7.7 4.9 1.7 2.6 2.6 4.8 2.2 4.9-.4 0-3.6.3-7.1.6-3.5.2-9.4 1.2-13 2.2-5.6 1.4-7.6 1.5-12.8.5-9.4-1.7-11.5-4.5-7.2-9.5 2.7-3.1 3.7-5.8 3.4-9.1l-.3-2.6 11.1 3.9c6.2 2.2 13.3 4.1 16 4.2zm126.2-4.3c2.1 2.2 3.7 4 3.4 4-.3 0-2.3-1.8-4.4-4-2.1-2.2-3.7-4-3.4-4 .3 0 2.3 1.8 4.4 4zm91.9 1c4.1 3.4 21.6 20.7 19.1 18.8-8.6-6.4-25.5-21.7-25.5-23.1 0-.9.8-.4 6.4 4.3zm-74.3-2.3c1.3 1.6 1.2 1.7-.3.4-1.7-1.3-2.2-2.1-1.4-2.1.2 0 1 .8 1.7 1.7zm647.2 2.6c-.7 1.1-2.3-1.2-2.3-3.2 0-1.1.4-.9 1.4.4.8 1.1 1.2 2.4.9 2.8zm-478.5-1.7c3.2.9 6.1 2 6.6 2.5.7.6-9.3-1.9-13.9-3.6-3.1-1.1 2.6-.3 7.3 1.1zm-278.2 2c1.2 1.7.8 2.3-3.8 5.6-2.8 2.1-5.7 3.8-6.4 3.8-1.3 0-5.4-5.5-5.4-7.1 0-.4 1.7-.9 3.8-1.3 2-.3 4.8-1.2 6.2-2 3.1-1.7 4-1.5 5.6 1zm185.4 8.5c1.9 1.8 8 6.6 13.4 10.6l9.9 7.4-10.4-.2-10.4-.2-8.1-11c-7.9-10.7-8.1-11.2-6.5-13.3l1.6-2.2 3.5 2.8c1.9 1.6 5.1 4.3 7 6.1zm143.8-7.2c1.2.1 1.7 5.2.7 6.3-.3.3-1.9.3-3.6-.1-2.2-.4-3.5-1.5-4.4-3.8l-1.3-3.1 3.6.3c2.1.2 4.3.3 5 .4zm25.7.5c1.9.8 3.5 1.7 3.5 2 0 1.8-14.4 24.6-15.6 24.6-.2 0 .2-1.2 1-2.8 2.4-4.7 6.1-18.3 6.5-24 .1-1.5.4-1.5 4.6.2zm296.1 5.4c.1 7.9 2.5 14.2 7.2 18.9 2.7 2.6 2.9 3.2 1.5 3.5-1 .2 1.9 1.4 6.5 2.7 6.2 1.8 8.9 3.1 10.7 5.3 3.2 3.8 5.5 11.6 6 20.2.5 8.9-1.1 12.1-7.3 14.9-5.9 2.7-23.8 3.3-35.2 1.1l-7.5-1.4-7.3 3.5c-4.1 2-10.5 4.4-14.3 5.5-6.9 1.9-7.1 1.9-11.4 0-8.2-3.5-35.6-1.3-46.2 3.7-2.5 1.1-6.1 1.7-10.3 1.7-6.2 0-24.6-1.3-27.9-1.9-3.9-.7-21.2-1.8-26.7-1.7-3.4.1-9.2 1.1-13 2.3-5.8 1.8-8.4 2.1-16.9 1.6-8.7-.5-19-2-23.3-3.3-.9-.3.8-2.9 5-7.7 3.4-3.9 6.6-7.4 6.9-7.7 3.7-3.2 23.9-34.5 30.1-46.7 2.9-5.7 4.6-8 5.7-7.8.9.1 3.9.6 6.6.9 8.5 1.1 12.9 1.7 15.6 2.2 1.5.2 4.7.6 7 .9 2.4.3 8.3 1.2 13 2 6.6 1.2 9.4 1.3 11.5.4 8.9-3.4 21.4-5.2 38.9-5.5 17-.3 18.5-.5 26-3.2 4.4-1.7 13.9-4.3 21-6 18-4.3 20.5-4.8 24.5-5l3.5-.2.1 6.8zm77.5.4c.3 10.1 0 17.2-.7 16.6-.5-.6-5.4-21.1-5.4-22.9 0-.4 1.3 0 3 .9 2.4 1.4 3 2.4 3.1 5.4zM284 834.3c4.7 2.4 11.5 5.4 15.1 6.6 10.1 3.3 11.9 5.4 7 8-1.4.8-3.7-.1-10.2-4.2-9-5.5-25.9-17.5-25.9-18.3 0-.3 1.2.3 2.8 1.4 1.5 1.1 6.5 4 11.2 6.5zm216.7-3.1c-.2 1.3-.4.5-.4-1.7-.1-2.2.1-3.2.4-2.3.2 1 .2 2.8 0 4zm4.8-4.2c-.3.5-1.1 1-1.6 1-.6 0-.7-.5-.4-1 .3-.6 1.1-1 1.6-1 .6 0 .7.4.4 1zm-360 4.6c1.5 2.5 2.5 4.8 2.2 5.1-.5.5-5.7-7.8-5.7-9 0-1.5.9-.5 3.5 3.9zm308.8-2c7.9 1.6 14.3 3.5 16 4.6 1.6 1.1 2.7 2.2 2.5 2.3-.2.2-4.5-.8-9.7-2.1-10.5-2.8-24-7.2-22.8-7.3.5-.1 6.8 1.1 14 2.5zm190.7-1.4c0 .5-1.2.5-2.7.2-4-1-4.2-1.5-.5-1.2 1.8.1 3.2.6 3.2 1zm-463.5 16.1c5.9 8.2 10.4 15.1 10.1 15.5-.4.3-2 .7-3.6.8-1.6.1-4.2 1.3-5.9 2.5-3.6 2.7-3.2 3-11.3-7.7l-4.7-6.1 3-4.1c2.1-2.9 2.6-4.1 1.6-4.5-.7-.3-2.2.8-3.3 2.4-1 1.6-2.2 2.9-2.6 2.9-.4 0-2-1.9-3.5-4.1l-2.7-4.1 2.9-2.1c1.7-1.2 4.1-3.3 5.5-4.8 1.4-1.5 2.8-2.4 3.1-2.1.3.4 5.4 7.4 11.4 15.5zM665.8 830c7.3 1.6 6.1 2.1-2.3 1-3.9-.5-7.8-.9-8.7-1-1 0-1.8-.5-1.8-1.1 0-1.2 3.7-.8 12.8 1.1zm-397.3 1c1 1.1 1.6 2 1.3 2-.3 0-1.3-.9-2.3-2-1-1.1-1.6-2-1.3-2 .3 0 1.3.9 2.3 2zm268.9.9c17 5.2 31.8 6.9 50.1 5.6 11.7-.8 29.5-1.4 29.5-1 0 .8-3.8 9.9-6.9 16.7-6.5 14.3-17 29.5-28.6 41.6l-5 5.3-5.5-2.2c-8.4-3.5-23.6-11.5-33-17.7-10.3-6.7-28-20.1-28-21.2 0-.5 2.5-4.4 5.6-8.7 3.1-4.3 7.3-10.8 9.3-14.5 2-3.7 4.1-6.6 4.7-6.4.7.3 4.2 1.4 7.8 2.5zm-192.6 8.5c3.5 4.8 6.2 9 5.8 9.3-.3.4-5.5-1-11.5-3s-11.7-3.7-12.7-3.7c-1.3 0-.2-1.6 4.1-6 3.3-3.3 6.4-5.9 6.9-5.7.6.2 3.9 4.3 7.4 9.1zm555.3-4.7c0 2.7.3 6.9.5 9.5.4 3.6.2 4.6-.8 4.3-1.4-.6-2-18.5-.6-18.5.5 0 .8 2.1.9 4.7zm-412.8-1.8c1.2.1 1.7.9 1.7 3.1 0 4.2-3 3.9-5.2-.4-1.5-3.2-1.5-3.4 0-3.1.9.2 2.5.4 3.5.4zm-7.5 1.7c1.2.8 2.2 1.9 2.2 2.4 0 1.3-4.1-.1-6.2-2.2-1.7-1.7-1.7-1.8 0-1.8 1 0 2.8.7 4 1.6zm16.8-.4c.3.3.2 1.8-.2 3.2-.5 2-1.2 2.6-2.8 2.4-1.6-.2-2.1-1-2.2-3.4 0-2.8.3-3.1 2.3-2.9 1.3.1 2.6.5 2.9.7zm-214.1 21.3c3.4 3.2 4.1 4.1 2 2.9-5.7-3.4-26.6-20.6-27.4-22.6-.4-1.3 19.2 14 25.4 19.7zM618 845.6c-1.6 4.3-4.1 9.2-5.5 10.9-2 2.5-1.7 1.3 1.9-7 2.4-5.5 4.7-10.9 5.1-12 .4-1.1.9-1.5 1.1-.9.3.6-.9 4.6-2.6 9zm9.4-5.4c-2.7 5.4-10.5 18.8-10.9 18.8-1.1 0 10.2-21.9 11.3-22 .9 0 .8.8-.4 3.2zm13.6-2.5c0 1.8-8.7 17.6-14.7 26.7-10.8 16.3-32 40.6-35.5 40.6-3.4 0-2.6-1.9 3.6-8.9 13.3-14.8 26.7-33.8 37-52.4 3.3-5.9 4.1-6.7 6.7-6.7 1.6 0 2.9.3 2.9.7zm-10.7 3.8c-.3.9-.8 1.4-1 1.1-.3-.3-.2-.9.2-1.5.9-1.6 1.5-1.3.8.4zm-501.6.1c-.3.3-1.2.4-1.9.1-.8-.3-.5-.6.6-.6 1.1-.1 1.7.2 1.3.5zm22.6 6.5l4.7 6.9-4.1 2.6c-7.2 4.5-13.2 6.5-20.4 7-3.9.2-9.2 1-11.7 1.8-2.6.7-7.9 1.3-12 1.2-4-.1-8.4.3-9.8.9-1.4.6-3.8 1-5.5.7-4-.6-7-.5-12.5.3-2.5.3-5.1.2-5.9-.3-1.8-1.3-1.9-9.4-.1-10 .8-.3 2.6-1.8 4.1-3.3 2.1-2.1 2.7-3.5 2.3-5.5l-.5-2.7 7.3.8c4 .4 8 .7 8.8.6.8 0 5.3-.2 10-.4 5.5-.3 11.5-1.3 17-3 7.7-2.4 15.6-4 21.4-4.3 1.5-.1 3.4 1.8 6.9 6.7zM483 842c0 .5-.2 1-.4 1-.3 0-.8-.5-1.1-1-.3-.6-.1-1 .4-1 .6 0 1.1.4 1.1 1zm-234.4 3.5c3.4 2.6 7 7.2 6.3 7.9-.2.2-3.5-.4-7.3-1.3-7-1.7-8.6-3-10.1-8-.7-2.3-.6-2.4 3.4-1.8 2.3.3 5.7 1.7 7.7 3.2zm40.5-1.8c1.3 1.6 1.2 1.7-.3.4-1.7-1.3-2.2-2.1-1.4-2.1.2 0 1 .8 1.7 1.7zm198.9 1.5c0 3.9-1.9 7.6-2.1 4.3-.5-6.7-.4-7.5.8-7.5.8 0 1.3 1.2 1.3 3.2zm7-.8c0 .7-1.1 3-2.5 5-1.3 2-2.2 3.6-1.9 3.6.2 0-.2 1.3-1.1 3-2.2 4.3-2.6 3.7-1-1.8.8-2.6 1.5-5.9 1.5-7.3 0-1.4.3-2.9.7-3.2 1.2-1.2 4.3-.7 4.3.7zm429.6 10.3c-1.2 1.2-6.3-2.6-8.3-6.2-3.6-6.4-2.6-6.4 3.3-.1 3 3.2 5.2 6.1 5 6.3zm-623.1-3.6c.5.5.5.9 0 .9-1 0-10.5-6-10.5-6.7 0-.5 8.9 4.4 10.5 5.8zM77 847.5c1.7 1 1.1 5.1-1 7-1.3 1.2-4 1.9-7.7 2.2-6.3.3-13.7 2.7-16.7 5.2-1.8 1.6-1.8 1.5-.2-1.6 2.2-4.3 7.9-9.7 12.8-12.2 3.8-1.8 10.3-2.1 12.8-.6zm219.5 7.9c.5.2.7.7.3 1.1-.7.7-14.8-7.9-14.8-8.9 0-.3 3 1.3 6.7 3.5 3.7 2.1 7.2 4 7.8 4.3zm-81.5-2.8c3.3 1.9 7.1 3.7 8.4 4 1.3.2 4 1.1 5.9 1.9 5.5 2.3 8.9 1.9 12.7-1.5 1.8-1.7 4-3 4.7-3 .8 0 4 1.1 7.3 2.5 6.9 2.9 7.7 3 6 1-3.1-3.7.4-2.2 8.2 3.6 4.5 3.4 8.9 6.4 9.6 6.6.6.3 1.2.9 1.2 1.3 0 2-13.8 8.2-26.1 11.8-7.4 2.2-16.3 5.3-19.7 7l-6.2 3.1-8.9-9.2c-4.9-5.1-11.1-11.8-13.7-15l-4.7-5.7 2.6-2c1.4-1.1 3.4-3.8 4.3-6 1-2.2 1.9-4 2-4 .2 0 3 1.6 6.4 3.6zm700.9 1.3c-1.3.4-1.5.2-2.4-2.9l-.8-2.5 2.1 2.5c1.1 1.4 1.6 2.7 1.1 2.9zm-582.4-1.5c6.4 1.3 7.6 1.5 13.7 2.1 9 .9 10.2 2.8 1.3 2.1-6.7-.5-20.1-3.8-21.4-5.2-.3-.4.3-.4 1.4-.1 1.1.3 3.4.8 5 1.1zm149.7 3.8c-.8.8-.9.4-.5-1.3.4-1.3.8-1.8 1.1-1 .2.7-.1 1.8-.6 2.3zM364.5 855c-.3.5-1.8.9-3.3.9l-2.7-.1 3-.8c1.7-.4 3.1-.8 3.3-.9.2 0 0 .3-.3.9zm-200.7 10.2l5.2 6.7-6.3 3.5c-3.4 1.9-7.5 4-9.2 4.7-1.6.7-4.6 2.3-6.5 3.5-4.4 2.7-10.4 4.6-14.9 4.9-2 .1-5.8 1.2-8.4 2.4-5.5 2.6-7.7 2.4-8.8-.5-.6-1.7.1-3.3 3.1-7.3 2.1-2.8 3.7-6 3.5-7-.3-1.4 1.1-2.2 6.8-4 8.2-2.7 19.1-7.9 25.1-12.1 2.3-1.5 4.4-2.5 4.7-2.2.3.4 2.9 3.7 5.7 7.4zm128.2-4.6c0 .2-.9 0-2-.6s-2-1.3-2-1.6c0-.2.9 0 2 .6s2 1.3 2 1.6zm206 .9l2.4 2.5-5.5 5.6c-10.8 11.1-25.1 19-44.8 24.9-11.2 3.3-12.6 3.1-2.4-.4 20.5-7 36.6-18.3 43.9-30.7 1.4-2.4 2.9-4.4 3.3-4.4.4 0 1.8 1.1 3.1 2.5zm-15.1.7c-.6 1.3-3.4 4.1-6.2 6.3-3.7 2.7-4.6 3.2-3.3 1.5 1.8-2.2 9.7-9.9 10.3-10 .2 0-.2 1-.8 2.2zm-166.3 3c4.9 2.3 15.2 6.3 22.9 9 13.2 4.5 13.7 4.7 8 4.2-8.3-.8-43.6-14.9-41.8-16.7 1-1.1 1.5-.9 10.9 3.5zm-114.7 7.3c4.2 5.5 10.4 12.8 13.8 16.2l6.2 6.2-2.9 2.1c-1.5 1.1-3.1 2-3.5 2-.4 0-5.5-3.9-11.3-8.7-11-8.9-23.2-20.9-23.2-22.8 0-2.1 8.2-5.5 12.4-5.1.5.1 4.3 4.6 8.5 10.1zm285.2-6.8c-.5 1-3.1 3.8-5.8 6.3-3.4 3.2-3.9 3.5-1.7 1 1.7-1.9 4.2-4.7 5.4-6.3 2.7-3.1 3.5-3.5 2.1-1zm424.7 1.9c-.4.3-1.2-.5-1.8-1.8-1.2-2.2-1.2-2.2.6-.6 1 1 1.5 2 1.2 2.4zm-9.1 10.6c2.5 6 4.8 10.9 5.2 10.9 2.3.5 7.2.4 10.4-.2 2-.3 3.7-.4 3.7-.2 0 1-10.9 5.3-13.6 5.3-3.9 0-8-3.8-9.5-8.9-1.1-3.8-2.3-21.6-1.3-19.1.4.8 2.7 6.3 5.1 12.2zm-395.6-8.3c1.9 1.6 4.8 4.1 6.4 5.5 8.8 7.6 30.2 21.1 45.8 28.8l7.8 3.9-4.6 3.5c-9.2 7-20.3 13.6-33 19.8-13.5 6.6-30.8 13.6-34.1 13.8-1.9.2-16.6-6.3-34.9-15.4-8.3-4.1-10.6-4.9-13.5-4.4-11.4 2-25.8 2.6-35.5 1.4-12-1.5-22.7-7.9-28.7-17.2-4.2-6.6-4.6-8-2-7.2.9.3 5.1.8 9.2 1.1 32.6 2.8 59.3-1.6 84-13.9 11.8-5.9 16.8-9.5 23.2-16.6 2.9-3.3 5.6-6 5.9-6 .3 0 2.1 1.3 4 2.9zm414.8-.3c-3.2 1.7-4.9 1.7-4.9 0 0-.8 1.2-1.6 2.8-1.8 3.9-.5 4.8.3 2.1 1.8zm-616 1c1.4 1.2-1.9.1-3.5-1.2-1.8-1.4-1.8-1.4.6-.3 1.4.6 2.7 1.3 2.9 1.5zm35.6 1c2.4 1.1 2.5 1.3.5.8-1.4-.4-3.8-1.3-5.5-2-2.4-1.1-2.5-1.3-.5-.8 1.4.4 3.9 1.3 5.5 2zm128-1.6c-.3.5-1.2 1-1.8 1-.7 0-.6-.4.3-1 1.9-1.2 2.3-1.2 1.5 0zm445.5 0c0 .5-.2 1-.4 1-.3 0-.8-.5-1.1-1-.3-.6-.1-1 .4-1 .6 0 1.1.4 1.1 1zm-542.7 2c.9 1 .8 1.2-.6.6-1.1-.3-4.2-.9-7-1.2-7.5-.9-7.3-1.7.1-1.1 3.5.3 6.9 1.1 7.5 1.7zm-11.5.9c5.4 1.1 13.1 2.3 17.2 2.8 9 .9 32.5.9 43 .1l7.5-.7-7.4 1.9c-11.9 3-29.4 3.9-52.1 2.7-3.7-.2-18.9-6.6-19-8 0-1-.2-1 10.8 1.2zm105.2-1.3c0 1.1-20.9 9.8-21.7 9-.2-.2 18.4-8.5 21.5-9.5.1-.1.2.2.2.5zm5 .9c0 .2-1.3 1.1-3 2-3.8 1.9-4 1.1-.2-.9 3.1-1.7 3.2-1.8 3.2-1.1zm152.6 3.3c-1.7 1.6-1.8 1.6-.5-.5.7-1.2 1.5-2 1.8-1.7.3.2-.3 1.2-1.3 2.2zm298.9-1.8c-.3.5-1.5 1.5-2.6 2-1.5.8-1.9.7-1.9-.4 0-1.3 1.4-2.1 4.3-2.5.5 0 .5.3.2.9zm-608 9.5c8.8 3.6 15.5 6.5 14.9 6.5-1.4 0-14.2-4.4-18.6-6.3-1.8-.9-5.8-2.7-8.8-4-3-1.4-6.4-3.3-7.5-4.2-1.9-1.5-1.8-1.5 1 0 1.7.8 10.2 4.5 19 8zm-4.6-6.9c1.4 1.2-1.9.1-3.5-1.2-1.8-1.4-1.8-1.4.6-.3 1.4.6 2.7 1.3 2.9 1.5zm-190.9.2c0 2.4-6.5 9.2-8.9 9.2-1 0-4.4 1.3-7.5 2.8-3.1 1.6-5.6 2.6-5.6 2.2 0-1.7 7.3-10 10.5-12 6.3-3.9 11.5-4.9 11.5-2.2zm175.6 1.7c9 5.5 37.2 15.9 48.8 18.1 4.6.8 5.2 1.8 2.3 3.7-1.2.8-5.1 4.1-8.7 7.2-12.6 11-18 14.7-26.2 17.6-4.4 1.5-9.1 3.5-10.4 4.4-2.3 1.5-2.9 1.3-16.7-6.7-7.8-4.5-15.4-8.8-16.9-9.6-3.1-1.5-3.2-1.8-1.4-11.7.7-3.9 1.2-8.7 1.1-10.8-.2-3.8-.2-3.8 7.4-7.7 4.2-2.1 9-4.8 10.6-5.9 1.7-1.2 3.3-2.1 3.6-2.1.4 0 3.3 1.6 6.5 3.5zm165.4-.1c-2.5 1.3-5.6 2.6-7 3-1.4.3.2-.7 3.5-2.3 7.1-3.5 10.1-4.1 3.5-.7zm-146.5.4c-.3.3-1.1 0-1.8-.7-.9-1-.8-1.1.6-.5 1 .3 1.5.9 1.2 1.2zm14.6 1c-.7.2-1.8-.1-2.3-.6-.8-.8-.4-.9 1.3-.5 1.3.4 1.8.8 1 1.1zm293.2-.6c-7.8 10-17.9 22-20.9 24.8l-3.8 3.5 4.1-5c2.3-2.8 5.4-6.4 7-8.2 1.5-1.7 5.2-6.1 8.2-9.7 3-3.6 5.7-6.6 5.9-6.6.2 0 0 .6-.5 1.2zM318 880c.8.5 1.1 1 .5 1-.5 0-1.7-.5-2.5-1s-1-1-.5-1c.6 0 1.7.5 2.5 1zm149.3 1.3c-7 5.8-18.4 10.1-34.2 13.1-7.6 1.5-16.1 2.2-10.6.9 10.6-2.4 39.3-12 43-14.4 4.2-2.6 5.2-2.4 1.8.4zM443 881c0 .7-6.9 3-8.6 3-.5-.1.6-.9 2.5-1.9 3.4-1.8 6.1-2.3 6.1-1.1zm-13 2c-2.3 1.6-14 5-18.5 5.5-3.5.4-3.7.3-1.5-.6 3.8-1.6 18.3-5.8 20-5.8 1.3-.1 1.3 0 0 .9zm-212.9 3.7c1.3 1.6 1.2 1.7-.3.4-1-.7-1.8-1.5-1.8-1.7 0-.8.8-.3 2.1 1.3zm-5 13.3c1.9 1.5 1.7 3-.3 3-.9 0-13.1-12-15.8-15.5-.8-1.1 2 1 6.3 4.5 4.3 3.6 8.7 7.2 9.8 8zm49.6-4.7c-.3 4-.9 8.1-1.2 9-.3.9-.7 2.4-1 3.2-.4 1.3-2.4.5-10.2-3.6-14.7-7.9-14.3-7.3-8.1-9.7 6-2.4 17.6-6 19.7-6.1 1.1-.1 1.3 1.3.8 7.2zm72.7-4.4c.4.5-.3.7-1.4.4-2.3-.6-2.6-1.3-.6-1.3.8 0 1.7.4 2 .9zM207.3 906c.4 0 .7.5.7 1.1 0 1.2-13.6-10.6-14.3-12.5-.3-.7 2.5 1.6 6.1 5 3.7 3.5 7 6.4 7.5 6.4zm174.2-11.5l5 1.4-5.5-.6c-3-.3-6.2-.9-7-1.4-2.5-1.4 1.8-1.1 7.5.6zm20.3.7c-3.1.7-5.6.7-7.5 0-2.3-.9-1.5-1 4.7-1 7.5 0 7.5 0 2.8 1zm-12.5 3.9c3.1.1 5.7.5 5.7.9 0 1.2-15.5.4-17.7-.9-1.4-.8-.9-.9 2.2-.6 2.2.3 6.6.5 9.8.6zm21.2 1.4c.6.2-2.5.4-6.7.4-4.3.1-7.8-.3-7.8-.7 0-.7 12.3-.5 14.5.3zm-42.9.8c0 .1 1.8 3.5 3.9 7.5 6.6 12.8 15.2 20 29.2 24.9 7.2 2.4 9 2.7 23.3 2.6 8.5 0 17.4-.5 19.8-1.1 4.2-1 4.7-.8 20.5 6.8 9.8 4.7 15.6 8 14.7 8.4-2.1.8-20.7 5.2-32 7.6-8.6 1.8-12.3 1.9-37.5 1.6-15.4-.3-29.1-.7-30.5-1-1.4-.2-4.8-.7-7.7-1-9.7-1-23.5-3.7-31.7-6.2-7.3-2.3-25.3-10.7-29.9-13.9-1.8-1.3-1.8-1.4 0-2.3 1-.5 4.2-1.7 7.1-2.6 5.7-1.7 11.6-5.6 22.7-15.1 17.8-15.3 21.1-17.5 25-16.9 1.6.3 3 .6 3.1.7zM243.3 910l11.7 8.4-2.7 2.8c-1.5 1.6-3.5 2.7-4.4 2.6-1-.2-7-4.3-13.4-9.3l-11.6-9 2.8-2.3c1.5-1.2 3.5-2.1 4.3-1.9.8.2 6.8 4.2 13.3 8.7zm14 1c.4.4.5 1.4.1 2.3-.5 1.4-1.5 1.1-6.3-2.3-3.1-2.2-7.2-5.4-9.1-7-3.1-2.7-2.5-2.5 5.5 1.6 5 2.6 9.4 5 9.8 5.4zm-23.9 5.7c10.6 8.1 12.3 10.2 7.9 10.3-.9 0-10-6.8-22.2-16.6-.6-.5 1-2.4 2-2.4.5 0 6 3.9 12.3 8.7zm338-2.9c-13.4 11.8-19.3 16.6-28.9 23.7-6 4.5-14.4 10.3-18.6 12.9l-7.7 4.7-5.3-2.1c-3-1.2-5.8-2.5-6.2-2.9-.5-.5 2-1.9 5.5-3.2 6.6-2.4 30.8-14.5 39.3-19.6 5.6-3.3 19.3-12.9 21.3-15 .7-.7 1.9-1.3 2.5-1.3.7 0-.2 1.2-1.9 2.8zm9.6.2c1.2.9.7 1.7-3 5.1-7.5 6.8-22 18.3-30.7 24.3s-24.6 14-26.5 13.4c-.6-.2 2.1-2.3 6.1-4.7 15.1-9 31.6-21.3 47.6-35.5 4.5-4 4.4-4 6.5-2.6zm-347 13.8c.3.3-.8-.2-2.5-1.3-3.6-2.2-15.5-11.5-15.5-12.1 0-.4 17 12.3 18 13.4zm32.5-12c1.7 1 5.3 3.1 8 4.6 17.7 9.9 20.7 11.9 19.1 12.8-1 .6-4.2-.4-10.2-3.3-8.6-4.2-22.4-11.8-22.4-12.4 0-1 1.3-3.5 1.9-3.5.3 0 2 .8 3.6 1.8zm316.8 3.6c-3.1 3.7-6.3 6.4-14.1 11.9-7.4 5.2-7.4 4.6 0-1.5 3.5-2.8 8.4-7.1 11-9.5 5.6-5.2 7-5.6 3.1-.9zM220.4 924c3.6 3 6 5.7 5.3 5.9-2.1.6-16.9 8.1-20.6 10.3l-3.4 2.2.7-3c1.1-4.6 9.6-21.6 10.6-21.2.5.2 3.9 2.8 7.4 5.8zm394.6 1.4c6.9 1.9 13.6 3.7 15 4 1.4.3 5.7 1.2 9.5 2 8.9 1.9 11.4 2.4 20 3.7 3.9.6 8.1 1.2 9.5 1.5 1.4.2 5.3.7 8.7 1 3.4.3 7 .7 8 .9 1 .2 2.1.4 2.5.4.4.1.6 1.3.6 2.8-.2 8.5 6.6 20 18.3 31.3 8.9 8.6 10.2 11.1 9 17.5-1.5 7.9-5.7 10.6-15.8 10-8-.6-26.3-6.2-30.8-9.6-.6-.4-4.4-.2-8.5.5-7.3 1.3-29.7 1.4-35 .2-1.4-.3-4.9-1.1-7.8-1.7-7.7-1.6-17.7-5.1-25.2-8.9-3.5-1.8-7.8-3.4-9.5-3.7-9.3-1.3-27.4-6.5-42.9-12.3l-5.5-2.1 11.2-7.6c18.4-12.5 31.6-22.8 43.4-34l3.4-3.1 4.7 1.9c2.6 1 10.3 3.4 17.2 5.3zm-342.1 3.5c6.9 3.9 12.8 7.1 13.3 7.1 2.1 0 .4 1.7-4.3 4.3-2.8 1.7-5.7 2.6-6.6 2.2-.9-.3-6.5-3.7-12.3-7.6l-10.7-6.9 3.1-3.5c1.7-1.9 3.6-3.2 4.1-3.1.6.2 6.6 3.6 13.4 7.5zm-10.7 8.5c4.2 2.8 7.5 5.3 7.3 5.5-.2.1-3-.9-6.1-2.3-6.7-3.1-15.5-9.6-14.8-10.8.6-1 1.3-.6 13.6 7.6zM307 939c.8.5 1.1 1 .5 1-.5 0-1.7-.5-2.5-1s-1-1-.5-1c.6 0 1.7.5 2.5 1zm408.2 1.5c16.6 2.8 36 13.9 51.8 29.5 6.4 6.3 14 15.1 14 16.3 0 .3-3-1-6.7-2.8-14.1-6.9-33.4-11.1-52.1-11.4l-9.7-.1-6-6.3c-3.3-3.4-7.4-8.9-9.1-12.2-3.2-6.1-5-12.6-3.8-13.8.7-.7 16-.1 21.6.8zM305.9 945c18 7.4 40.4 13.5 67.2 18.2 10.2 1.8 16.5 2.2 34.9 2.2 12.4.1 26.1-.3 30.5-.7 8.8-.8 28.3-4.2 33.1-5.8 1.7-.5 4.1-1.2 5.4-1.4 1.2-.2 4.7-1.1 7.6-2l5.3-1.5 9 3.7c5 2.1 9.1 4.1 9.1 4.4 0 .6-1.2 1.1-5.5 2.4-1.7.5-22.7 8.2-29.8 10.9l-6.8 2.6-47.7.1h-47.7l-24.1-6c-27.6-6.9-43-12.6-57.2-21.3l-3.3-2 5.3-3.4c2.9-1.8 5.8-3.4 6.4-3.4.6 0 4.4 1.3 8.3 3zm209.1-2.6c0 .3-9.5 3.8-14 5.1-5.3 1.6-.6-1 5.8-3.1 7.2-2.3 8.2-2.6 8.2-2zm-221 13.9c7 3.6 2.5 2.4-5.7-1.6-3.5-1.6-6-3.4-5.7-3.9.3-.5 1.8-.1 3.2.9 1.5.9 5.2 3 8.2 4.6zm-15.6.7c2.8 1.2 9.1 3.8 14 5.7 5 1.9 10.5 4.1 12.1 4.9 1.7.8 6.8 3 11.5 4.9 11.5 4.6 8.8 4.4-4.8-.4-16.2-5.8-43.5-18.1-44.8-20.3-.4-.5 1.1-.1 3.2 1 2.2 1.1 6.1 3 8.8 4.2zm228.1 13.9c-1.3 1.1-13.7 5.2-14.2 4.7-.2-.2 2.9-1.5 6.9-2.9 8.5-3 8.5-3 7.3-1.8zM349 979.4c5.8 1.4 15.2 3.4 21 4.6 13.4 2.6 14.3 3.1 5 2.5-8.5-.5-13.1-1.2-17.5-2.5-11.2-3.3-23.5-7.3-23.5-7.6 0-.6 2.3-.1 15 3zm127.7.2c-.3.3-1.2.4-1.9.1-.8-.3-.5-.6.6-.6 1.1-.1 1.7.2 1.3.5zm-28.9 1.8c-2.5 1-50 1.7-58.7.9-12-1.1-1.6-1.8 28.8-1.8 20.4 0 31.3.3 29.9.9zm21.2-.5c0 1.1-5.9 2.6-6.7 1.8-.3-.3 1-1 2.8-1.6 1.9-.5 3.5-1 3.7-1 .1-.1.2.3.2.8zm3.7-.3c-.3.3-1.2.4-1.9.1-.8-.3-.5-.6.6-.6 1.1-.1 1.7.2 1.3.5zm-26.7 4.8c-5.5 2-38.1 2.6-43 .8-1.7-.6 1-.9 9-.8 6.3.1 15.6-.2 20.5-.5 5-.3 10.8-.6 13-.7l4-.1-3.5 1.3zm-60.3 2.2c-.3.3-1.2.4-1.9.1-.8-.3-.5-.6.6-.6 1.1-.1 1.7.2 1.3.5z"/><path d="M202 241c-4.4 6.2-6.4 12.4-6.1 19.4.2 5.4 9 11.4 18.1 12.2 1.6.2.5-.6-2.9-2.2-2.9-1.3-7.1-4.2-9.3-6.5-3.6-3.7-3.9-4.5-3.5-8.2.4-4.4 3-11.6 5.5-15.5 2.1-3.3.7-2.7-1.8.8zM224.1 260.2c-6.7 14.2-8.3 23.6-5 30.5 1.6 3.3 3.1 4.6 7.7 6.8 7.4 3.5 11.2 3.2 31-3 6.9-2.1 6.4-2.8-.7-.9-18.9 4.9-31.8 2.5-34.9-6.5-1.9-5.3.6-19.6 5.3-31.4.4-.9.5-1.7.2-1.7s-1.9 2.8-3.6 6.2zM195.9 274.7c-3.2 7.8-3.4 18.8-.3 23 2.9 3.9 9.2 7.2 15 7.8l4.9.6-4-1.8c-15.1-6.7-18.5-13.4-14.4-28.3 1-3.6 1.6-6.6 1.5-6.8-.2-.1-1.4 2.3-2.7 5.5zM169.4 302.6c-.9 2.2-1.8 6.9-2 10.7-.3 6.2-.1 7 2.6 10.1 1.6 1.8 2.8 3.5 2.6 3.7-.5.4.1.5 10.4 1.4l6.5.5-5.5-1.5c-6-1.7-11.6-5.7-14-9.8-1.3-2.3-1.3-3.5.1-10.4.9-4.3 1.5-8 1.3-8.2-.1-.2-1 1.4-2 3.5zM170.2 333.5c-1.6 6.1-1.5 14.8.2 18.9 2.5 6.1 9.4 9.7 18.9 10.1 5.3.2 4.6-.8-1.5-2.3-6.6-1.5-12.7-5.7-15.1-10.2-1.5-2.9-1.8-5-1.3-12.3.2-4.8.4-8.7.2-8.7-.1 0-.7 2-1.4 4.5zM293.8 337.7c.7.3 1.6.2 1.9-.1.4-.3-.2-.6-1.3-.5-1.1 0-1.4.3-.6.6zM198.1 356.6c0 1.1.3 1.4.6.6.3-.7.2-1.6-.1-1.9-.3-.4-.6.2-.5 1.3zM145.8 686.5c-3.7 2.5-7.8 8.8-7.8 11.9 0 5.5 5.4 9.4 12.2 9 10.7-.7 15.2-11.6 8-19.4-3.8-4.3-7.8-4.7-12.4-1.5z"/></svg>